/* XPM */
static char *db4d89a013854429a1bf78ab98ef7d43qeTLbSclVAXEKzbp[] = {
/* columns rows colors chars-per-pixel */
"50 50 14 1 ",
"  c #141B1B",
". c #3B3643",
"X c #79B8CE",
"o c #9BA7AA",
"O c #FFCC8C",
"+ c #FFCD8D",
"@ c #FFCD8E",
"# c #FFCD8F",
"$ c #FFCF92",
"% c #FFD095",
"& c #FFD096",
"* c #FFD197",
"= c #FFDAAB",
"- c white",
/* pixels */
"OOOOOOOOOOOOOOOOOOOOOOOOOOOOOOOOOOOOOOOOOOOOOOOOOO",
"OOOOOOOOOOOOOOOOOOOOOOOOOOOOOOOOOOOOOOOOOOOOOOOOOO",
"OOOOOOOOOOOOOOOOOOOOOOOOOOOOOOOOOOOOOOOOOOOOOOOOOO",
"OOOOOOOOOOOOOOOOOO  OOOOOOOOOOOOOOOOOOOOOOOOOOOOOO",
"OOOOOOOOOOOOOOOOO XX OOOOOOOOOOOOOOOOOOOOOOOOOOOOO",
"OOOOOOOOOOOOOOOOO XX OOOOOOOOOOOOOOOOOOOOOOOOOOOOO",
"OOOOOOOOOOOOOOOOOO  OO  OOOOOOOOOOOOOOOOOOOOOOOOOO",
"OOOOOOOOOOOOOOOOOOOOO XX OOOOOOOOOOOOOOOOOOOOOOOOO",
"OOOOOOOOOOOOOOOOOOOO XXXX OOOOO OOOOOOOOOOOOOOOOOO",
"OOOOOOOOOOOOOOOOOOO XXXXXX OOO X OOOOOOOOOOOOOOOO$",
"OOOOOOOOOOOOOOOOOO XXXXoXX OO XX OOOOOOOOOOOOOOO&=",
"OOOOOOOOOOOO OOOOO XXXooXX O XXX OOOOOOOOOOOOOO$&&",
"OOOOOOOOOOO X OOO XXXXooXXX XXoX OOOOOOOOOOOOOOOOO",
"OOOOOOOOOO XX OOO XXXooooXX XooXX OOOOOOOOOOOOOOOO",
"OOOOOOOOOO XXX OO XXooooooX XoooXX OOOOOOOOOOOOOOO",
"OOOOOOOOO XXXXX   Xooo--ooXXoooooXX OOOOOOOOOOOOOO",
"OOOOOOOOO XXoXXXX Xoo----oooo--oooXX OOOOOOOOOOOOO",
"OOOOOOOOO XXoooXXXooo-----oo----oooXX OOOOOOOOOOOO",
"OOOOOOOOO XXooooXXoo------o---o--ooXXX OOOOOOOOOOO",
"OOOOOOOOO XXoooooooo---------oXo--ooXX OO OOOOOOOO",
"OOOOOOOOOO Xooooooo----------oXo---ooX O X OOOOOOO",
"OOOOOOOOOOO Xoo-ooo----------oXo---ooXX XX OOOOOOO",
"OOOOOOOOOOO Xoo--o-----------oo----ooXX XXX OOOOOO",
"OOOOOOOOOOO Xoo--------------------ooX XoXX OOOOOO",
"OOOOOOOOOO XXoo-------------------oooXXooXX OOOOOO",
"OOOOOOOOO XXooo---o---------------oooooooXX OOOOOO",
"OOOOOOOO XXXoo---ooo--------------ooo---oX OOOOOOO",
"OOOOOOO XXXooo----o-----.---------o----oXX OOOOOOO",
"OOOOOOO XXXoo----------...------------ooX OOOOOOOO",
"OOOOOOO XXXoo----------...-----------ooX OOOOOOOOO",
"OOOOOO XXXoo--------..--.--..--------ooXX OOOOOOOO",
"OOOOOO XXXoo-------....---....------ooXXXX OOOOOOO",
"OOOOOO XXXoo-------....---....------ooXXXX OOOOOOO",
"OOOOOO XXXoo--------..-----..--------ooXXX OOOOOOO",
"OOOOOO XXXoo--o------------------o---ooXXX OOOOOOO",
"OOOOOOO XXooo--oo--------------oo---oooXX OOOOOOOO",
"OOOOOOO XXXoo----oooooooooooooo-----ooXXX OOOOOOOO",
"OOOOOOOO XXooo---------------------ooXXX OOOOOOOOO",
"OOOOOOOOO XXooo-------------------ooXXXX OOOOOOOOO",
"OOOOOOOOOO XXooooo-------------ooooXXXX OOOOOOOOOO",
"OOOOOOOOOOO XXoooooo--------ooooooXXXX OOOOOOOOOOO",
"OOOOOOOOOOOO XXXooooooooooooooooXXXX  OOOOOOOOOOOO",
"OOOOOOOOOOOOO  XXXXoooooooooooXXXX  OOOOOOOOOOOOOO",
"OOOOOOOOOOOOOOO  XXXXXXXXXXXXXXX  OOOOOOOOOOOOOOOO",
"OOOOOOOOOOOOOOOOO   XXXXXXXXX   OOOOOOOOOOOOOOOOOO",
"OOOOOOOOOOOOOOOOOOOO         OOOOOOOOOOOOOOOOOOOOO",
"OOOOOOOOOOOOOOOOOOOOOOOOOOOOOOOOOOOOOOOOOOOOOOOOOO",
"OOOOOOOOOOOOOOOOOOOOOOOOOOOOOOOOOOOOOOOOOOOOOOOOOO",
"OOOOOOOOOOOOOOOOOOOOOOOOOOOOOOOOOOOOOOOOOOOOOOOOOO",
"OOOOOOOOOOOOOOOOOOOOOOOOOOOOOOOOOOOOOOOOOOOOOOOOOO"
};
