/* XPM */
static char *result[] = {
/* columns rows colors chars-per-pixel */
"50 50 14 1 ",
"  c #141B1B",
". c #3B3643",
"X c #79B8CE",
"o c #9BA7AA",
"O c #FFCC8C",
"+ c #FFCD8D",
"@ c #FFCD8E",
"# c #FFCD8F",
"$ c #FFCF92",
"% c #FFD095",
"& c #FFD096",
"* c #FFD197",
"= c #FFDAAB",
"- c white",
/* pixels */
"OOOOOOOOOOOOOOOOOOOOOOOOOOOOOOOOOOOOOOOOOOOOOOOOOO",
"OOOOOOOOOOOOOOOOOO OOOOOOOOOOOOOOOOOOOOOOOOOOOOOOO",
"OOOOOOOOOOOOOOOOO o OOOOOOOOOOOOOOOOOOOOOOOOOOOOOO",
"OOOOOOOOOOOOOOOOOO OOOOOOOOOOOOOOOOOOOOOOOOOOOOOOO",
"OOOOOOOOOOOOOOOOOOOOOOOOOOOOOOOOOOOOOOOOOOOOOOOOOO",
"OOOOOOOOOOOOOOOOOOOOOOOOOOOOOOOOOOOOOOOOOOOOOOOOOO",
"OOOOOOOOOOOOOOOOOOOOOOOOOOOOOOOOOOOOOOOOOOOOOOOOOO",
"OOOOOOOOOOOOOOO  OOOOO OOOOOOOOOOOOOOOOOOOOOOOOOOO",
"OOOOOOOOOOOOOO XX OOO X  OOOOOOOOOOOOOOOOOOOOOOOOO",
"OOOOOOOOOOOOO XXXX O XXXX OOOOOOO  OOOOOOOOOOOOOO@",
"OOOOOOOOOOOOO XXXX O XXXXX OOOOO XX OOOOOOOOOOO+*=",
"OOOOOOOOOOOOOO XX OO XXXXXX OOO XXXX OOOOOOOOO#$%&",
"OOOOOOOOOOOOOOO  OOO XXoXXXX OOO XXXX OOOOOOOOOOOO",
"OOOOOOOOOOOOOO  OOO XXXooXXXX OO XXXXX OOOOOOOOOOO",
"OOOOOOOOOOOO  XX OO XXXoooXXX OO XXXXXX OOOOOOOOOO",
"OOOOOOOOOOO XXXX O XXXoooooXXX  XXXoXXX OOOOOOOOOO",
"OOOOOOOOOO XXXXX O XXXoo-ooXXX XXXXooXXX OOOOOOOOO",
"OOOOOOOOO XXXXXX  XXXoo--ooXXXXXXooooXXX OOOOOOOOO",
"OOOOOOOO XXXXooX XXXoo----oXXXXoooo-ooXX O OOOOOOO",
"OOOOOOOO XXXoooXXXXoo-----ooXoooo---ooXX  X OOOOOO",
"OOOOOOO XXXoooooXXoo------ooooo----oooXXXXX OOOOOO",
"OOOOOO XXXooo-oooooo-------oooo----ooXXXXXX OOOOOO",
"OOOOOO XXXoo---ooooo-------ooo-----ooXXoooX OOOOOO",
"OOOOO XXXooo---oooXo--------oo-----oooooooX OOOOOO",
"OOOOO XXXoo-----oXXo---------------ooooooXX OOOOOO",
"OOOOO XXooo-----oooo---------------oo--ooXX OOOOOO",
"OOOO XXXoo-------oo-----.----------o---oXX OOOOOOO",
"OOOO XXXoo-------------...---------o--ooXX OOOOOOO",
"OOOO XXXoo-------------...-----------ooXX OOOOOOOO",
"OOOO XXXoo----------..--.--..--------ooXX OOOOOOOO",
"OOOO XXXoo---------....---....------ooXX OOOOOOOOO",
"OOOOO XXoo---------....---....------ooXX OOOOOOOOO",
"OOOOO XXoo----------..-----..--------ooX OOOOOOOOO",
"OOOOO XXXoo---o------------------o---ooXX OOOOOOOO",
"OOOOOO XXoo----oo--------------oo----ooXX OOOOOOOO",
"OOOOOO XXXoo-----oooooooooooooo-----ooXXX OOOOOOOO",
"OOOOOOO XXoo------------------------ooXXX OOOOOOOO",
"OOOOOOO XXXooo---------------------ooXXX OOOOOOOOO",
"OOOOOOOO XXXooo-------------------ooXXXX OOOOOOOOO",
"OOOOOOOOO XXXoooo---------------oooXXXX OOOOOOOOOO",
"OOOOOOOOOO XXXoooooo--------ooooooXXXX OOOOOOOOOOO",
"OOOOOOOOOOO  XXXooooooooooooooooXXXXX OOOOOOOOOOOO",
"OOOOOOOOOOOOO  XXXXoooooooooooXXXXX  OOOOOOOOOOOOO",
"OOOOOOOOOOOOOOO  XXXXXXXXXXXXXXX   OOOOOOOOOOOOOOO",
"OOOOOOOOOOOOOOOOO   XXXXXXXXX   OOOOOOOOOOOOOOOOOO",
"OOOOOOOOOOOOOOOOOOOO         OOOOOOOOOOOOOOOOOOOOO",
"OOOOOOOOOOOOOOOOOOOOOOOOOOOOOOOOOOOOOOOOOOOOOOOOOO",
"OOOOOOOOOOOOOOOOOOOOOOOOOOOOOOOOOOOOOOOOOOOOOOOOOO",
"OOOOOOOOOOOOOOOOOOOOOOOOOOOOOOOOOOOOOOOOOOOOOOOOOO",
"OOOOOOOOOOOOOOOOOOOOOOOOOOOOOOOOOOOOOOOOOOOOOOOOOO"
};
