/* XPM */
static char *result[] = {
/* columns rows colors chars-per-pixel */
"50 50 14 1 ",
"  c #141B1B",
". c #3B3643",
"X c #79B8CE",
"o c #9BA7AA",
"O c #FFCC8C",
"+ c #FFCD8D",
"@ c #FFCD8E",
"# c #FFCD8F",
"$ c #FFCF92",
"% c #FFD095",
"& c #FFD096",
"* c #FFD197",
"= c #FFDAAB",
"- c white",
/* pixels */
"OOOOOOOOOOOOOOOOOOOOOOOOOOOOOOOOOOOOOOOOOOOOOOOOOO",
"OOOOOOOOOOOOOOOOOOOOOOOOOOOOOOOOOOOOOOOOOOOOOOOOOO",
"OOOOOOOOOOOOOOOOOOOOOOOOOOOOOOOOOOOOOOOOOOOOOOOOOO",
"OOOOOOOOOOOOOOOOOOOOOOOOOOOOOOOOOOOOOOOOOOOOOOOOOO",
"OOOOOOOOOOOOOOOOOOOOOOOOOOOOOOOOOOOOOOOOOOOOOOOOOO",
"OOOOOOOOOOOOOO OOOOOOOOOOOOOOOOOOOOOOOOOOOOOOOOOOO",
"OOOOOOOOOOOOO o OOOOOOOOOOOOOOOOOOOOOOOOOOOOOOOOOO",
"OOOOOOOOOOOOOO OOOOOOOOOOOOOOO  OOOOOOOOOOOOOOOOOO",
"OOOOOOOOOOOOOOOOOOOOOOOOOOOOO XX OOOOOOOOOOOOOOOOO",
"OOOOOOOOOOOOOOOOOOOOOOOOOOOO  XX OOOOOOOOOOOOOOOO@",
"OOOOOOOOOOOOOOOOOOOOOOOOOOO XX  OOOOOOOOOOOOOOO+*=",
"OOOOOOOOOOOOOOOOOOO   OOOO XXXX OOOOOOOOOOOOOO#$%&",
"OOOOOOOOOOO OOOOOO XXX OOO XXXXX OOOOOOOOOOOOOOOOO",
"OOOOOOOOOO X OOOO XXXXX   XXXoXXX OOOOOOOOOOOOOOOO",
"OOOOOOOOO XX OOOO XXXXX XXXXXooXX O      OOOOOOOOO",
"OOOOOOOO XXXX OOO XXXXXXXXXooooXXX XXXXXX OOOOOOOO",
"OOOOOOO XXoXXX O XXXXXXXXoooo-ooXXXXXXXXXX OOOOOOO",
"OOOOOOO XXooXXX XXXXXoooooo---ooXXXXXXXXXX OOOOOOO",
"OOOOOO XXooooXXX XXooooo-----oooXXXoXXXXX OOOOOOOO",
"OOOOOO XXoooooXXXXooo--------ooXXXoooXXX OOOOOOOOO",
"OOOOOO XXoooooooXooo---------ooXXoooooXX OOOOOOOOO",
"OOOOOO XXoo--oooooo-----------ooooo-ooXX OOOOOOOOO",
"OOOOOO XXXoo---oooo------------ooo--ooX O OOOOOOOO",
"OOOOOOO XXXoo---ooo-----------------ooX  X OOOOOOO",
"OOOOOOO XXXoo----o-----------------ooXX XXX OOOOOO",
"OOOOOOOO XXooo---------------------oooXXXoX OOOOOO",
"OOOOOOOO XXXoo----------------o---ooooooooXX OOOOO",
"OOOOOOO XXXXoo----------.----ooo--oo-oooooXX OOOOO",
"OOOOOOO XXXooo---------...----o---o----oooXX OOOOO",
"OOOOOOO XXXoo----------...--------------ooXX OOOOO",
"OOOOOOO XXXoo-------..--.--..---------ooooXX OOOOO",
"OOOOOO XXXoo-------....---....-------ooooXX OOOOOO",
"OOOOOO XXXoo-------....---....------oooXXXX OOOOOO",
"OOOOOO XXXoo--------..-----..--------ooXXX OOOOOOO",
"OOOOOO XXXoo--o------------------o---ooXXX OOOOOOO",
"OOOOOOO XXooo--oo--------------oo---oooXX OOOOOOOO",
"OOOOOOO XXXoo----oooooooooooooo-----ooXXX OOOOOOOO",
"OOOOOOOO XXooo---------------------ooXXX OOOOOOOOO",
"OOOOOOOO XXXooo-------------------ooXXXX OOOOOOOOO",
"OOOOOOOOO XXXoooo---------------oooXXXX OOOOOOOOOO",
"OOOOOOOOOO XXXooooo----------oooooXXXX OOOOOOOOOOO",
"OOOOOOOOOOO  XXXooooooooooooooooXXXX  OOOOOOOOOOOO",
"OOOOOOOOOOOOO  XXXXoooooooooooXXXX  OOOOOOOOOOOOOO",
"OOOOOOOOOOOOOOO  XXXXXXXXXXXXXXX  OOOOOOOOOOOOOOOO",
"OOOOOOOOOOOOOOOOO   XXXXXXXXX   OOOOOOOOOOOOOOOOOO",
"OOOOOOOOOOOOOOOOOOOO         OOOOOOOOOOOOOOOOOOOOO",
"OOOOOOOOOOOOOOOOOOOOOOOOOOOOOOOOOOOOOOOOOOOOOOOOOO",
"OOOOOOOOOOOOOOOOOOOOOOOOOOOOOOOOOOOOOOOOOOOOOOOOOO",
"OOOOOOOOOOOOOOOOOOOOOOOOOOOOOOOOOOOOOOOOOOOOOOOOOO",
"OOOOOOOOOOOOOOOOOOOOOOOOOOOOOOOOOOOOOOOOOOOOOOOOOO"
};
