/* XPM */
static char *result[] = {
/* columns rows colors chars-per-pixel */
"50 50 14 1 ",
"  c #141B1B",
". c #3B3643",
"X c #79B8CE",
"o c #9BA7AA",
"O c #FFCC8C",
"+ c #FFCD8D",
"@ c #FFCD8E",
"# c #FFCD8F",
"$ c #FFCF92",
"% c #FFD095",
"& c #FFD096",
"* c #FFD197",
"= c #FFDAAB",
"- c white",
/* pixels */
"OOOOOOOOOOOOOOOOOOOOOOOOOOOOOOOOOOOOOOOOOOOOOOOOOO",
"OOOOOOOOOOOOOOOOOOOOOOOOOOOOOOOOOOOOOOOOOOOOOOOOOO",
"OOOOOOOOOOOOOOOOOOOOOOOOOOOOOOOOOOOOOOOOOOOOOOOOOO",
"OOOOOOOOOOOOOOOOOOOOOOOOOOOOOOOOOOOOOOOOOOOOOOOOOO",
"OOOOOOOOOOOOOOOOOOOOOOOOOOOOOOOOOOOOOOOOOOOOOOOOOO",
"OOOOOOOOOOOOOOOOOOOOOOOOOOOOOOOOOOOOOOOOOOOOOOOOOO",
"OOOOOOOOOOOOOOO  OOOOOOOOOOOOOOOOOOOOOOOOOOOOOOOOO",
"OOOOOOOOOOOOOO XX OOOO  OOOOOOOOOOOOOOOOOOOOOOOOOO",
"OOOOOOOOOOOOOO XX OOO XX  OOOOOOOOOOOOOOOOOOOOOOOO",
"OOOOOOOOOOOOOOO  OOOO XXXX OOOOOOOOOOOOOOOOOOOOOO@",
"OOOOOOOOOOOOOOOOOOOOO XXXXX O  OOOOOOOOOOOOOOOO+*=",
"OOOOOOOOOOOOOOOOOOOOO XXXXXX XX OO  OOOOOOOOOO#$%&",
"OOOOOOOOOOOOOOOOOOOOO XXoXXX XXX  XX OOOOOOOOOOOOO",
"OOOOOOOOOOOOOOOOOOOOO XXooXXXXXX O XX OOOOOOOOOOOO",
"OOOOOOOOOOOOO   OOOO XXXoooXXXX OO XXX OOOOOOOOOOO",
"OOOOOOOOOOO  XXX OOO XXXooooX  OO XXXXX OOOOOOOOOO",
"OOOOOOOOOO XXXX OOOO XXoo-ooXX O XXXoXXX OOOOOOOOO",
"OOOOOOOOO XXXXX OOO XXooo-ooXXX XXXoooXX OOOOOOOOO",
"OOOOOOOO XXXXX OOO XXXoo---ooXXXXXooooXXX OOOOOOOO",
"OOOOOOO XXXXoX OO XXXooo---oooXXoooo-ooXX  OOOOOOO",
"OOOOOOO XXXooXX  XXXXoo-----oooooo---ooXX X OOOOOO",
"OOOOOOO XXooooXXXXXXoo------ooooo----ooXXXXX OOOOO",
"OOOOOO XXXoo-ooXXXooo--------ooo----ooXXXXXX OOOOO",
"OOOOOO XXooo-oooXooo----------oo----ooXooXXX OOOOO",
"OOOOOO XXoo---ooooo----------------ooXooooXX OOOOO",
"OOOOOO XXoo-----oo-----------------oooo-ooXX OOOOO",
"OOOOO XXXoo------------------------oo---ooXX OOOOO",
"OOOOO XXXoo-------------.----------o---ooXXX OOOOO",
"OOOOO XXXoo------------...------------oooXX OOOOOO",
"OOOOO XXXoo------------...-----------oooXXX OOOOOO",
"OOOOO XXXoo---------..--.--..-------oooXXXX OOOOOO",
"OOOOO XXXoo--------....---....------ooXXXX OOOOOOO",
"OOOOO XXXoo--------....---....-------ooXXX OOOOOOO",
"OOOOO XXXoo---------..-----..--------ooXXX OOOOOOO",
"OOOOOO XXooo--o------------------o---ooXX OOOOOOOO",
"OOOOOO XXXoo---oo--------------oo---oooXX OOOOOOOO",
"OOOOOOO XXooo----oooooooooooooo-----ooXXX OOOOOOOO",
"OOOOOOO XXXooo---------------------ooXXX OOOOOOOOO",
"OOOOOOOO XXXooo-------------------ooXXXX OOOOOOOOO",
"OOOOOOOOO XXXoooo---------------oooXXXX OOOOOOOOOO",
"OOOOOOOOOO XXXooooo----------oooooXXXX OOOOOOOOOOO",
"OOOOOOOOOOO XXXXooooooooooooooooXXXXX OOOOOOOOOOOO",
"OOOOOOOOOOOO  XXXXXoooooooooooXXXXX  OOOOOOOOOOOOO",
"OOOOOOOOOOOOOO   XXXXXXXXXXXXXXXX  OOOOOOOOOOOOOOO",
"OOOOOOOOOOOOOOOOO   XXXXXXXXX    OOOOOOOOOOOOOOOOO",
"OOOOOOOOOOOOOOOOOOOO         OOOOOOOOOOOOOOOOOOOOO",
"OOOOOOOOOOOOOOOOOOOOOOOOOOOOOOOOOOOOOOOOOOOOOOOOOO",
"OOOOOOOOOOOOOOOOOOOOOOOOOOOOOOOOOOOOOOOOOOOOOOOOOO",
"OOOOOOOOOOOOOOOOOOOOOOOOOOOOOOOOOOOOOOOOOOOOOOOOOO",
"OOOOOOOOOOOOOOOOOOOOOOOOOOOOOOOOOOOOOOOOOOOOOOOOOO"
};
