/* XPM */
static char *result[] = {
/* columns rows colors chars-per-pixel */
"50 50 210 2 ",
"   c #0F1A1A",
".  c #141B1B",
"X  c #181C1C",
"o  c #2F251F",
"O  c #2B1E21",
"+  c #351F24",
"@  c #2B2723",
"#  c #342B26",
"$  c #3B2A25",
"%  c #442D22",
"&  c #4C2528",
"*  c #56262B",
"=  c #483429",
"-  c #4A352C",
";  c #52362B",
":  c #55392F",
">  c #5B3A2F",
",  c #5D2F33",
"<  c #5C3C30",
"1  c #64272E",
"2  c #67282F",
"3  c #6B372A",
"4  c #77382D",
"5  c #752B34",
"6  c #792D35",
"7  c #663E32",
"8  c #793537",
"9  c #5E4538",
"0  c #78422B",
"q  c #6A4134",
"w  c #694839",
"e  c #7C4736",
"r  c #734A3A",
"t  c #7D4A39",
"y  c #6A513E",
"u  c #72523F",
"i  c #5C4745",
"p  c #654F40",
"a  c #6F5949",
"s  c #796556",
"d  c #833C2F",
"f  c #9A2C3C",
"g  c #8A3738",
"h  c #9C313B",
"j  c #9A3938",
"k  c #A63B3E",
"l  c #B43D3C",
"z  c #9A4E2F",
"x  c #874638",
"c  c #834B3B",
"v  c #974737",
"b  c #83503D",
"n  c #8F503E",
"m  c #925438",
"M  c #A0502F",
"N  c #A44735",
"B  c #A45230",
"V  c #A8583D",
"C  c #BB5834",
"Z  c #C54A3D",
"A  c #C75B37",
"S  c #D8593D",
"D  c #E45D3F",
"F  c #D26138",
"G  c #DC6639",
"H  c #E5633D",
"J  c #EC633E",
"K  c #E66B3A",
"L  c #EA6C3C",
"P  c #A33C41",
"I  c #BA3343",
"U  c #B63842",
"Y  c #C73E47",
"T  c #CD3E49",
"R  c #D23548",
"E  c #DF364D",
"W  c #D53B4A",
"Q  c #DB3A4A",
"!  c #E0374D",
"~  c #E13B4B",
"^  c #E83D4D",
"/  c #9F4540",
"(  c #855A44",
")  c #965340",
"_  c #9A5541",
"`  c #9B5C44",
"'  c #905653",
"]  c #A54042",
"[  c #AB4544",
"{  c #A34A42",
"}  c #AB4C43",
"|  c #B94746",
" . c #B64844",
".. c #AF5045",
"X. c #A75947",
"o. c #BA564B",
"O. c #88715D",
"+. c #A9624D",
"@. c #A46C4E",
"#. c #B3634D",
"$. c #BA614F",
"%. c #AD6E55",
"&. c #B16752",
"*. c #B16D53",
"=. c #BB7458",
"-. c #906C62",
";. c #8A7E6B",
":. c #987564",
">. c #C24346",
",. c #D24346",
"<. c #D8444A",
"1. c #D3594F",
"2. c #E24747",
"3. c #E24B45",
"4. c #E14249",
"5. c #E64C4D",
"6. c #E9484C",
"7. c #E35342",
"8. c #E45940",
"9. c #EB5D43",
"0. c #E7524C",
"q. c #E84B51",
"w. c #ED5454",
"e. c #ED5A54",
"r. c #F15E57",
"t. c #C96D4E",
"y. c #C8704F",
"u. c #CC6C51",
"i. c #D06350",
"p. c #C47659",
"a. c #C97759",
"s. c #D37F5F",
"d. c #E96342",
"f. c #ED6B44",
"g. c #F06B46",
"h. c #ED7344",
"j. c #EF7749",
"k. c #F47545",
"l. c #F1774C",
"z. c #F2794C",
"x. c #ED6252",
"c. c #F26057",
"v. c #F36C5A",
"b. c #F47356",
"n. c #F57D51",
"m. c #8C806C",
"M. c #93836F",
"N. c #978972",
"B. c #9C8A72",
"V. c #B3906E",
"C. c #A98E75",
"Z. c #B3977E",
"A. c #F68154",
"S. c #FC875B",
"D. c #C28866",
"F. c #D48060",
"G. c #DD8665",
"H. c #DF8967",
"J. c #C4916E",
"K. c #D7996D",
"L. c #CE8C78",
"P. c #C39671",
"I. c #C59873",
"U. c #DE9671",
"Y. c #E38A67",
"T. c #E58C69",
"R. c #E88E6B",
"E. c #F68861",
"W. c #FF8D64",
"Q. c #E5946F",
"!. c #FF9167",
"~. c #E59A74",
"^. c #C8A577",
"/. c #D1A97F",
"(. c #E0AE78",
"). c #B99F82",
"_. c #B9A587",
"`. c #BCA485",
"'. c #C4AA8A",
"]. c #C9AE8D",
"[. c #DEAA8C",
"{. c #CCB28F",
"}. c #D6B184",
"|. c #DCB685",
" X c #D9B98F",
".X c #CBB290",
"XX c #D4B692",
"oX c #D9BD95",
"OX c #EAAE83",
"+X c #EBB487",
"@X c #E6BB85",
"#X c #E3BE8E",
"$X c #EDBC89",
"%X c #DFC198",
"&X c #EEC186",
"*X c #E6C08F",
"=X c #F3C489",
"-X c #FFCC8C",
";X c #EDC593",
":X c #EEC997",
">X c #E5C399",
",X c #EAC799",
"<X c #EDCD9B",
"1X c #F1C795",
"2X c #FCCE94",
"3X c #F6CD9C",
"4X c #F9CE98",
"5X c #EED19C",
"6X c #F1D39E",
"7X c #F2D5A0",
/* pixels */
"-X-X-X-X-X-X-X-X-X-X-X-X-X-X-X-X-X-X-X-X-X-X-X-X-X-X-X-X-X-X-X-X-X-X-X-X-X-X-X-X-X-X-X-X-X-X-X-X-X-X",
"-X-X-X-X-X-X-X-X2X4X4X2X-X-X-X-X-X-X-X-X-X-X-X-X-X-X-X-X-X-X-X-X-X-X-X-X-X-X2X4X4X4X2X-X-X-X-X-X-X-X",
"-X-X-X-X-X-X-X-XZ.$ - # <X-X6X2X2X2X4X4X2X2X4X4X2X-X4X4X6X2X4X4X1X-X4X4X2X-X_.# = % %X-X-X-X-X-X-X-X",
"-X-X-X-X-X-X-XXXz S.E.e .X%X= % a '.% % O.Z.% % B.6Xa % % .X9 % 9 {.= % p <XB.` !.A.e ,X-X-X-X-X-X-X",
"-X-X-X-X-X-X4X7 J z.u.o + 3 K L F d L L C v L L N & A L L d G K K 4 K L F * O = A.j.D s -X-X-X-X-X-X",
"-X-X-X-X-X-X>X, 8.H L B l 4.K K H 3.K K D 7.K K D ^ H K K 3.H K H 3.K H H ^ j A K G Z i 4X-X-X-X-X-X",
"-X4X%X-X2XXXy * 2.8.D D ^ ~ D K 8.4.H K 3.2.H K 3.~ 7.K D ~ D K D 4.H K D ~ 3.8.D 8.<.$ -.%X-X2X%X2X",
"2XC.u '.C.4 A 5 I ! ! E ~ E ~ D Q ~ 2.7.~ ~ 3.7.~ ! ! D 2.! ~ D 4.E 4.7.~ ! ~ E E ~ f g C 3 `.Z.u Z.",
",Xb !.g N k.f.Z N ^ ! ~ E ~ ! E E ~ ! ! Q ~ E E ~ ! ~ ! E E ~ E E ~ E ~ ~ E E ~ ~ ~ j S h.k.g { !.: ",
",Xe z.^ 3.n.h.K 3.! ~ ! E E E ~ ~ ! ! ~ ~ E ~ E ! ! ! ~ ! ! ~ ~ ~ ~ ~ E E ! ~ E ! ~ 3.K z.k.~ 5.z.; ",
":X5 J D D h.f.K H ~ ~ D 7.D 3.2.D D 2.7.D 8.2.7.D 7.^ 4.D D 3.2.8.8.3.2.8.8.8.7.~ 2.8.K L f.D D D % ",
").Z.l L j.j.h.z.K 2.4.K K K D D K K 3.D K K 3.H K K 4.3.K K D 7.K K 8.8.K K K K ~ 7.K z.h.h.z.d.h {.",
";..Xh g.n.n.l.b.D 2.7.2.2.3.D 7.2.7.7.D 2.D 2.D 2.D 4.3.7.3.D 7.7.3.7.8.3.2.2.3.7.7.7.n.l.l.A.9.5 :X",
";..Xh g.z.n.j.v.~ ~ 4.! ~ ~ ~ 4.E <.~ ^ ~ ~ ~ 4.~ ~ ~ Q ~ E 4.~ ~ ~ 4.Q ~ ~ ~ ~ ~ ~ ~ 5.z.z.A.d.5 <X",
"m..Xh d.h.L A.d.~ 8.H H 2.~ H H D 2.H H 8.2.H H 7.~ D D H 2.D H H 2.D H D ~ <.H d.7.~ d.n.K f.9.5 <X",
"m..Xh f.z.K A.8.7.K H K 2.4.K H D 3.K K D 7.K H D ! H K K 3.H H H 2.K K H ~ 7.K K H 2.g.z.K A.9.5 ,X",
"N. Xh f.A.L H 3.7.~ E 7.2.4.8.~ D 3.3.4.D 3.3.2.7.~ D ~ D 3.D ~ D 2.D ~ D ! D 4.~ ~ D 3.L K A.9.5 ,X",
"Z. XP f.z.z.6.<.~ 4.Q 4.4.4.~ ~ ~ 4.4.Q 4.<.~ ~ 4.~ ~ ~ ~ ~ 4.E ~ <.~ ~ 4.~ 4.~ ~ ~ ~ ~ e.z.n.9.6 <X",
"^.#XP f.L n.5.H K H 2.K K K 7.7.K H 3.D K H 2.H K K H 3.K K D 7.K H 7.7.K K K H 2.K K D e.z.h.9.6 <X",
"|.*X] f.A.b.0.H H H 2.H H H 8.8.H H D D H K 2.H H D D 3.H H D 3.H H D D H D H H 3.K H D e.l.A.9.6 <X",
"@X*Xk f.W.e.3.E ~ 3.2.3.~ 4.3.3.~ 2.2.7.E 3.2.7.! ~ 7.2.3.Q 7.3.2.4.3.3.4.! ~ 3.4.3.! 4.3.v.S.d.8 ,X",
"&X*X[ f.W.x.3.4.~ 4.2.2.4.Q 2.2.2.~ 2.2.2.4.2.2.4.~ 4.2.2.~ 2.2.2.~ 2.2.2.~ 4.2.3.Q ! 2.2.b.S.9.g ,X",
"=X*X5 d.n.h.K D <.K K K 2.4.K K H 3.K K D 3.K K D ! H K K 3.H K K 2.K H H ~ 7.K K D ~ H K j.z.Z , ,X",
"=X@Xt A K H H 7.9.8.8.H 2.4.H 7.H 3.H D D 7.H D D ! D D D 3.H D H 2.H D H ~ D D D D D D H D H >.( '.",
"&X(.!.6.3.4.4.4.7.4.E 4.Q ~ 4.~ 2.4.2.~ 2.2.<.E 2.! 3.~ 2.~ 2.E 2.4.2.! 2.~ <.~ E 4.7.4.4.4.3.e.!.a ",
"^.@.n.4.4.7.7.7.2.E 7.7.7.7.~ 2.7.7.2.3.7.7.4.7.3.7.Q 2.7.7.3.2.7.8.2.2.7.7.7.7.7.E 2.7.7.7.~ 5.z.w ",
"&XK.K <.H K K K 7.3.K K K H ~ 8.K K 3.D K K 3.H K K 4.2.K K D 7.K K 8.D K K K K H 2.8.K K K 7.3.K > ",
"2X@XC ^ 2.2.7.d.7.K H 2.3.H E 8.7.D 7.D 3.D 3.D 3.D 4.2.D 3.8.7.7.7.7.7.7.2.3.7.K H 7.H 3.3.2.6.N '.",
"-X4X-.N } } Q 4.~ 2.2.E ~ 4.~ 4.! Q 4.4.~ ^ ~ 2.~ 4.~ ~ 4.~ 4.4.4.~ 4.4.~ Q E E 2.3.^ 4.,.} ..g Z.-X",
"-X2XN.e _ > x } } } } } } { } } } } { } { } { ..} { ..{ } { } } { { } } } } } { } { } } 8 q _ q .X-X",
"-XoXm X.7 ( s.s.s.s.@.< _ t r F.s.s.F.F.s.s.F.*.> ) c q F.F.F.s.F.F.F.s.9 n ) : p.F.F.F.a.w t V ( 4X",
"-X.Xz d.U =.R.T.T.R.%.: _ e w Y.G.G.G.G.G.G.Y.=.- _ t 9 T.T.T.T.T.T.H.H.- n ) = F.T.T.Y.T.+.>.K 0 <X",
"-X.XB J >.p.Y.~.:X:X/.[ Q Y +.r @ @ @ @ @ @ # *.[ Q Y X.(.1X1X,X1X,X:X;X+.W W V U.;X;XQ.Y.&.,.L 0 ,X",
"-X.Xz J >.p.Q.;X6X6X}.| ! W 7 X . . . . . . . # [ E W #.+X5X<X<X<X5X<X<X&.Q E ..U.<X<X;XT.&.,.L 0 :X",
"-X.XM J >.p.;X<X<X6X}.| ~ I X X X . . . . . .   2 ~ W #.(.3X5X<X5X<X5X<X+.E E ..U.<X<X5X+X#.,.L 0 <X",
"-X.XM J >.p.;X5X6X6X}.| ~ I X X . . . . . . .   1 ~ W #.+X6X<X5X<X5X<X<X*.Q ~ ..U.<X5X5X+X#.,.J 4 <X",
"-X.XM J >.p.;X<X<X6X}.| ~ I X . . . X . . . .   1 ^ W #.OX<X5X<X<X5X5X<X*.Q ~ ..~.<X5X5X+X#.<.L 0 <X",
"-X{.M J >.p.;X5X<X3X}.| ^ I X . . . . . . . . . 2 ! R #.OX<X<X6X<X<X5X:X+.Q E ..U.5X<X5X$X#.,.L 4 <X",
"-X.Xz J >.p.;X3X5X6X}.| ! I X . . . X . . . .   1 ! Q #.OX5X5X<X<X5X5X<X&.Q ~ ..U.<X3X<X$X#.,.L 4 <X",
"-X].N 9.>.p.1X6X6X7X}.| ^ I X . . . . . . . .   1 ^ W #.+X6X6X6X6X6X6X6X&.Q ~ ..U.6X6X7X$X#.,.J 4 ,X",
"-X1X' S ,.$.J.I.I.I.V.| ! I X X . . . . . . .   1 ^ W X.D.I.I.I.I.I.I.P.X.E ~ } =.I.I.I.D.o.Q A :.4X",
"-X-XM.>.! 1.t.u.t.t.y.1.! I X .   .             1 ~ <.u.t.t.t.t.t.t.t.t.u.~ ~ i.y.y.t.t.y.1.^ k .X-X",
"-X-X>Xg E w.c.c.c.c.c.q.! I . % < > < < , < > . 1 ! ^ r.r.c.r.r.c.c.c.c.r.Q ! w.c.c.c.r.c.q.R ' 4X-X",
"-X-X2XXX .T ! ! ! ! ! ! ! I # x _ _ _ _ _ _ _ : 1 ^ ! ! ! ! ! ! ! ! ! ! ! ~ ~ ! ~ ! ! ! ! >...,X-X-X",
"-X-X-X2X3XL.[ }  .} ..}  ./ t _ ) ) ) ) ) ) ) ) x  .[ } }  .} } } [ [ ..} [ [ ..} }  .[ } [.4X-X-X-X",
"-X-X-X-X-X4X3X3X3X3X3X3X4X3X3X3X3X3X3X3X3X3X3X3X3X3X3X3X4X4X4X4X3X3X3X3X3X3X4X3X4X4X2X2X-X-X-X-X-X-X",
"-X-X-X-X-X-X-X-X2X-X-X-X-X-X-X-X-X-X-X-X-X-X-X-X-X-X2X-X-X-X-X-X-X-X2X-X-X-X-X-X-X-X-X-X-X-X-X-X-X-X",
"-X-X-X-X-X-X-X-X-X-X-X-X-X-X-X-X-X-X-X-X-X-X-X-X-X-X-X-X-X-X-X-X-X-X-X-X-X-X-X-X-X-X-X-X-X-X-X-X-X-X",
"-X-X-X-X-X-X-X-X-X-X-X-X-X-X-X-X-X-X-X-X-X-X-X-X-X-X-X-X-X-X-X-X-X-X-X-X-X-X-X-X-X-X-X-X-X-X-X-X-X-X",
"-X-X-X-X-X-X-X-X-X-X-X-X-X-X-X-X-X-X-X-X-X-X-X-X-X-X-X-X-X-X-X-X-X-X-X-X-X-X-X-X-X-X-X-X-X-X-X-X-X-X"
};
