/* XPM */
static char *_3f09075ffb54c0be611215072de51fd2bT1QlC1WDLrRCui[] = {
/* columns rows colors chars-per-pixel */
"50 50 229 2 ",
"   c #091417",
".  c #141818",
"X  c #141D1D",
"o  c #211D1F",
"O  c #15211E",
"+  c #1B221E",
"@  c #2F231E",
"#  c #30221F",
"$  c #33371E",
"%  c #162324",
"&  c #1D2B22",
"*  c #1C2C2B",
"=  c #1E3229",
"-  c #1F3835",
";  c #252A26",
":  c #312E27",
">  c #243527",
",  c #263729",
"<  c #293D2B",
"1  c #34352D",
"2  c #29383B",
"3  c #323531",
"4  c #3B3D36",
"5  c #3E3F3A",
"6  c #462D24",
"7  c #572D25",
"8  c #4A3629",
"9  c #5C3426",
"0  c #533D2A",
"q  c #433D31",
"w  c #6A2B24",
"e  c #61372C",
"r  c #3B431C",
"t  c #2C452E",
"y  c #394324",
"u  c #3F532E",
"i  c #29433A",
"p  c #28443E",
"a  c #364735",
"s  c #365234",
"d  c #395436",
"f  c #3B5937",
"g  c #365738",
"h  c #3B5B39",
"j  c #3F603B",
"k  c #4E451C",
"l  c #484A25",
"z  c #584524",
"x  c #484437",
"c  c #44453E",
"v  c #49493F",
"b  c #56493A",
"n  c #455C32",
"m  c #5B543E",
"M  c #735627",
"N  c #79513B",
"B  c #40643D",
"V  c #466B3F",
"C  c #566D36",
"Z  c #5C7639",
"A  c #626122",
"S  c #656628",
"D  c #6A692E",
"F  c #727221",
"G  c #797527",
"H  c #2A3741",
"J  c #2E544D",
"K  c #365647",
"L  c #31534C",
"P  c #345B53",
"I  c #385F52",
"U  c #3B6349",
"Y  c #376053",
"T  c #3A6251",
"R  c #3E6C51",
"E  c #3F7052",
"W  c #464B44",
"Q  c #4E4E4E",
"!  c #495B45",
"~  c #535A4E",
"^  c #595A4C",
"/  c #665B46",
"(  c #6C5851",
")  c #4B6744",
"_  c #456D43",
"`  c #5A684E",
"'  c #4B7444",
"]  c #4E7946",
"[  c #47724E",
"{  c #4A754E",
"}  c #4E7D4D",
"|  c #507B46",
" . c #5D7947",
".. c #507E4B",
"X. c #426E50",
"o. c #546350",
"O. c #437251",
"+. c #477A52",
"@. c #636347",
"#. c #68774B",
"$. c #726F57",
"%. c #586270",
"&. c #7A7863",
"*. c #813B2B",
"=. c #AB3E2E",
"-. c #934E2A",
";. c #874935",
":. c #9C4632",
">. c #8D5838",
",. c #BA4D33",
"<. c #A55537",
"1. c #B9593B",
"2. c #877926",
"3. c #9D673C",
"4. c #8D7C32",
"5. c #AF6F2F",
"6. c #A86739",
"7. c #C85233",
"8. c #DA5437",
"9. c #D45639",
"0. c #CD6537",
"q. c #E8603F",
"w. c #8A5946",
"e. c #B25B47",
"r. c #8A6745",
"t. c #976B43",
"y. c #8B754B",
"u. c #99744B",
"i. c #867957",
"p. c #95735B",
"a. c #BD7D4B",
"s. c #867B68",
"d. c #C85C42",
"f. c #CB6F46",
"g. c #D67747",
"h. c #D17B4E",
"j. c #EF6F42",
"k. c #F67647",
"l. c #6D8137",
"z. c #788A37",
"x. c #7B9236",
"c. c #76933F",
"v. c #7C953B",
"b. c #54844D",
"n. c #57874C",
"m. c #5B8A4C",
"M. c #4D8151",
"N. c #5B9051",
"B. c #638647",
"V. c #638A46",
"C. c #6B8D43",
"Z. c #618C49",
"A. c #6B9246",
"S. c #749342",
"D. c #88892A",
"F. c #928D27",
"G. c #938F28",
"H. c #979127",
"J. c #9C952B",
"K. c #969C2E",
"L. c #9C9A2B",
"P. c #83883C",
"I. c #8B9935",
"U. c #82953A",
"Y. c #84993B",
"T. c #9C9730",
"R. c #959C31",
"E. c #9A9D31",
"W. c #B5832C",
"Q. c #A49B2A",
"!. c #AA9C2A",
"~. c #A88731",
"^. c #AB9134",
"/. c #9DA02F",
"(. c #ADA327",
"). c #A6A22A",
"_. c #A9A229",
"`. c #B1A42C",
"'. c #AEA438",
"]. c #B3A73A",
"[. c #C59B37",
"{. c #CEA03A",
"}. c #888641",
"|. c #A5A05C",
" X c #9A856A",
".X c #9A8C77",
"XX c #9D9078",
"oX c #B3956E",
"OX c #A48D74",
"+X c #A5937B",
"@X c #AC997D",
"#X c #B49B7B",
"$X c #BEA17C",
"%X c #C68749",
"&X c #DA8C47",
"*X c #E2874A",
"=X c #F7864B",
"-X c #F0974B",
";X c #D0AD50",
":X c #E1A259",
">X c #D18C77",
",X c #E99761",
"<X c #C3B478",
"1X c #D2C073",
"2X c #8E908D",
"3X c #AC9A81",
"4X c #B29E84",
"5X c #B39696",
"6X c #B4A184",
"7X c #BAA486",
"8X c #C7AE8E",
"9X c #C9B18F",
"0X c #DAB78B",
"qX c #D5B893",
"wX c #E9BE88",
"eX c #F1B592",
"rX c #ECC28D",
"tX c #F6C88E",
"yX c #FFCC8C",
"uX c #E5C396",
"iX c #EAC799",
"pX c #EEC899",
"aX c #F0C793",
"sX c #F4CA95",
"dX c #F9CC93",
"fX c #F3CC99",
"gX c #D2C9AF",
"hX c #E8CEB5",
"jX c #C5BFC0",
/* pixels */
"yXyXyXyXyXyXyXyXyXyXyXyXyXyXyXyXyXyXyXyXyXyXyXyXyXyXyXyXyXyXyXyXyXyXyXyXyXyXyXyXyXyXyXyXyXyXyXyXyXyX",
"yXyXyXyXyXyXyXyXyXyXyXyXyXyXyXyXyXyXyXyXyXyXyXyXyXyXyXyXyXyXyXyXyXyXyXyXyXyXyXyXyXyXyXyXyXyXyXyXyXyX",
"yXyXyXyXyXyXyXyXyXyXyXyXyXyXyXyXyXyXyXyXyXyXyXyXyXyXyXyXyXyXyXyXyXyXyXyXyXyXdXaXpXpXsXsXsXsXyXyXyXyX",
"yXyXyXyXyXyXyXyXyXyXyXyXyXyXyXyXyXyXyXyXyXyXyXyXyXyXyXyXyXyXyXyXyXyXyXyXyXaX8X+XXX+X+XXX+X6XuXyXyXyX",
"yXyXyXyXyXyXyXyXyXyXyXyXyXyXyXyXyXyXyXyXyXyXyXyXyXyXyXyXyXyXyXyXyXyXyXyXtXqX&.q 3 4 4 3 1 ^ 7XdXyXyX",
"yXyXyXyXyXyXyXyXyXyXyXyXyXyXdXdXdXdXdXsXdXsXdXsXsXdXsXpXdXsXsXdXsXsXyXsXrX+X^ > > > > & % 3 +XsXyXyX",
"yXyXyXyXyXyXyXyXyXyXyXyXdX9X@X+X@X3X3X3X3X3X3X3X3X3X3X3X3X3X@X3X3X3X3X@X.X&.j d f f s < ; 3 +XdXyXyX",
"yXyXyXyXyXyXyXyXyXyXyXyX0Xs.x 4 c v v v v v c v v v v v v v v v v v v v W ! ' ] | | _ s > 4 @XyXyXyX",
"yXyXyXyXyXyXyXyXyXyXyXaX#X` $ $ $ $ $ $ $ $ $ $ $ $ $ $ $ $ $ $ $ $ $ $ y j ] n.N.m.| f > 1  XrXyXyX",
"yXyXyXyXyXyXyXyXyXyX0X+X&.D A A A A A A A A A A A A A A A A A A A A A A A Z n.m.N.m.b.f ; : ^ #XrXyX",
"yXyXyXyXyXyXyXyXyXwXs.m S 2.G.H.F.F.F.F.F.F.F.F.F.F.F.F.F.F.F.F.G.G.H.H.D.z.Z.m.N.b.] f , % ; ^  XoX",
"yXyXyXyXyXyXyXyXtX@Xm l S G._.(.)._._._._._._._.)._.)._._._._._._._._.)./.v.V.b.M.' _ s t ; + ; m / ",
"yXyXyXyXyXyXyXtX$Xi.A S D.H._.`.(.(.`.(._.(.`.`.(.(.`._.(.`.(.(.(.`.(.(./.Y.m.M.U d s s s t < & q b ",
"yXyXyXyXyXyXrX X@.D D.G.L.Q._._.(.).(.)._._.)._.)._._._.)._.(.)._._.(._./.U.V.] h t > t B V d > @ x ",
"yXyXyXyXyXtX@X! y S H._.(._._._.(.).).)._._.)._.)._._._.)._.).)._._._._.K.Y.c.Z f < > s V | n < + q ",
"yXyXyXyXrX6X$.f n G K.`.`._._._.).).(.)._._._._._.)._._._._.)._.Q._._._.).R.U.z.C n s V | b.U < O 1 ",
"yXyXyX0Xs.o.! ) Z x.L._.(._._.Q.).).)._._._._._._.)._.).!._.)._._._._._.)./.R.I.l.Z ' M.n.b.h < + q ",
"yXyXdX+Xc > g ] C.Y.L._._._._.).(.).)._._._.Q._._._._.).)._.).!._.Q._.Q._._._.L.P.l.] ] | V d > : x ",
"yXyXsXXX3 > g ..A.Y.Q.(.(._.).)._._._._._.Q.)._.Q._.)._._.Q.(.)._._._._._.(.(.Q.z.C h g d s t 1 x x ",
"yXyXaX+X3 > f | A.Y.L._._._._._.Q._._._.)._._._._._.).Q.).(.).)._._._.)._.(.(.H.F n > = > > , 4 b b ",
"yXyXsX+X5 > g ] C.U.R.)._.).)._._._._._._._._._.).).)._.(._.)._.).)._._._._.Q.F.A $ + O O O 4 / i. X",
"yXyXaX+X5 > g ] m.S.Y.I./.).).(._._.(._.(._._._._.)._._._._.(.(.`._._._.)./.I.z.C n t + O ; / #X0XwX",
"yXyXaX+X5 > f ] Z.Z.C.v.I.L.(.(.(._.`.(.(._.)._._.)._._.(.(.(.(.(.(.(.)./.I.v.C.Z V h t + 1 s.wXyXyX",
"yXyXfX+X5 > f ] n.m.b.B.P.J.!.(.Q.L.L.L.L.Q.Q._.!.!.!.Q.Q.L.L.L.L.Q.Q.!.J.U.B.b.b.b.] d > a +XyXyXyX",
"yXyXpX+Xq , n ] b.M.}  .y.H.~.2.G F F F F F.~.W.W.W.W.H.2.F F F D 2.2.5.~.G  .} M.b...h , c +XdXyXyX",
"yXyXaX+XH < f ] M.+.X.o.r.6.6.-.z r r k k M -.7.0.0.0.-.-.k r r l e -.5.6.r.` X.+.b.] f > q +XdXyXyX",
"yXyXaX+X5 > f ] M.O.T ~ w.1.,.*.8 @ & + @ 9 :.7.8.8.7.:.9 @ + + ; 8 *.7.1.w.~ T O.} ] h > q +XsXyXyX",
"yXyXfX+X5 > f ] } O.Y ~ w.1.d.e.( Q H % o 9 :.9.q.q.0.-.7 @ % 2 Q ( e.d.1.w.~ I O.} | n < H +XsXyXyX",
"yXyXsX+X5 > f ] } E I ~ r.f.h.>X5X2X%.H # 9 <.g.k.k.g.<.0 o 2 %.2X5X7Xg.f.r.~ Y E } } h > a +XpXyXyX",
"yXyXsX+X5 > f ] } O.Y o.t.%X,XeXhXjX2XQ : z 6.*X-X=X*X6.0 $ W 2XgXhXeX,Xh.y.o.Y E } ] f > 4 +XpXyXyX",
"yXyXtX+X4 , f ] M.+.R ` y.%X:XrXhXgX2X` l M ~.&X-X-X&X~.M l ^ 2XhXhXwX:X%Xy.` X.+.M.] h > 4 +XaXyXyX",
"yXyXsX.X3 , f | b.M.+.#.}.'.;X;X1X<X|.4.G 4.^.[.{.{.[.W.2.2.P.|.<X<X;X;X'.}. .} } b.} f > 3 .XrXyXyX",
"yXyXsX+Xc > g ] b.b.b.B.P.L.].].].'.'.J.H.J.!.!.'.`.!.!.L.H.L./.|.].`.`.T.U.B.b.b.b.| d > c +XpXyXyX",
"yXyXyX8Xs.` ! ' ' | n.Z.c.I.K.L.K.K.R.R.E.E.K.E.K.R.R.E./.E.E.R.L.L.K./.I.v.V.b...' ) ) ` s.8XdXyXyX",
"yXyXyXsXqX3X&.! h _ b.Z.A.c.v.x.x.x.c.U.v.U.v.v.v.v.v.v.v.U.U.v.x.x.v.v.S.A.m.b._ f B &.3XqXpXyXyXyX",
"yXyXyXyXdXuXOXW < h ] b.m.n.V.V.V.V.V.Z.Z.Z.Z.Z.Z.V.Z.V.V.V.V.V.V.V.V.m.m.m.m.| h t W OXuXdXyXyXyXyX",
"yXyXyXyXyXsX4XW * t n [ | | b.} ..} } } } } ..] ....} } } ..} } } } } } } | ' h t & v 3XpXdXyXyXyXyX",
"yXyXyXyXdXdX4Xq O = t s U U X.X.X.X.O.X.X.X.X.X.X.X.X.X.X.X.X.X.X.O.X.X.U U s t = X W 4XfXdXyXyXyXyX",
"yXyXyXyXyXdX3XW O O & > i L T T T T T T I T T T I T T T T T I I T T T T K p , & O X W 3XfXyXyXyXyXyX",
"yXyXyXyXyXuX+Xb @ @ : : a K T T P P P I T T I T I I I T I T I I P P T T K a : : @ @ b +XuXdXyXyXyXyX",
"yXyXyXpXqX4Xp.N w w w 9 b ) R R I P I X.X.X.O.O.O.X.O.O.X.X.R I P P T X.) m 9 w w w e p.7XqXfXdXyXyX",
"yXyXsX8Xs.( *.:.:.=.=.:.N  .+.R I I R X.....} } ............[ R Y T O.{ #./ :.=.=.=.:.;.( p.9XfXyXyX",
"yXyXiX3Xq 7 *.,.8.8.8.0.t.#.} R T I X.{ ....| { | ] | | ....{ X.T T R } #.t.1.9.8.8.7.*.6 c 3XiXyXyX",
"yXyXiX.X; 8 ;.0.j.j.q.g.u.#.O.R I I T X.[ _ ) h f h h U ) [ O.Y I P T O.#.t.f.j.k.q.0.;.6 ; .XiXyXyX",
"yXyXiX.X3 8 >.g.=X=X=X%Xu.o.Y Y P P I I I s i , > > , t g T T I P P P T ` u.h.=X=X=Xg.>.6 3 .XuXyXyX",
"yXyXfX4X( b >.f.*X*X*Xf.y.o.P P P P P P L J * X X . % ; 2 J P P P P J P o.y.a.*X*X*Xf.>.b ( 4XpXyXyX",
"yXyXdXqX4X Xp.t.t.6.t.r.@.! P J P P P P L 2 * X .   X * J J P P P J P P ! @.w.t.6.3.t.p. X7XqXdXyXyX",
"yXyXyXdXaX0XOX/ 0 0 0 q W L P P P P P P J p ; .   . X * 2 J P P P P P P K c x z 0 z / OXqXfXdXdXyXyX",
"yXyXyXyXyXfX@XW + X @ * 2 L P P P P P P L 2 * X . . X * p J P I P P P P J 2 & + X o W @XpXyXyXyXyXyX",
"yXyXyXyXyXdX6Xc       % = J P I P P P P L J * X . . X * p J P P P P P P J - %       c 4XsXyXyXyXyXyX"
};
