/* XPM */
static char *_72426191a2e412b99dcb317f215d7e08Fw4CjeBr0km3NF6[] = {
/* columns rows colors chars-per-pixel */
"44 50 226 2 ",
"   c #0A1418",
".  c #141B1B",
"X  c #1B1F1D",
"o  c #271B1F",
"O  c #1C221E",
"+  c #23271E",
"@  c #29241E",
"#  c #342A1F",
"$  c #33371E",
"%  c #172727",
"&  c #1A2523",
"*  c #1C2A24",
"=  c #1A2A29",
"-  c #1F322B",
";  c #1F3633",
":  c #282A25",
">  c #302A29",
",  c #233427",
"<  c #233529",
"1  c #26392B",
"2  c #2B3A29",
"3  c #333E26",
"4  c #243634",
"5  c #243A34",
"6  c #233D3A",
"7  c #2B3E3A",
"8  c #373A35",
"9  c #612A1F",
"0  c #4E2F23",
"q  c #5C2923",
"w  c #463627",
"e  c #523A2B",
"r  c #653927",
"t  c #703328",
"y  c #3A411B",
"u  c #374A2C",
"i  c #2B4637",
"p  c #26423C",
"a  c #2C4B3D",
"s  c #324D33",
"d  c #3A453A",
"f  c #355336",
"g  c #395636",
"h  c #3D5737",
"j  c #365638",
"k  c #36593B",
"l  c #3A5A38",
"z  c #4A461D",
"x  c #484922",
"c  c #584627",
"v  c #585B24",
"b  c #494636",
"n  c #42433B",
"m  c #49493F",
"M  c #435636",
"N  c #55543B",
"B  c #66442A",
"V  c #754F31",
"C  c #53632F",
"Z  c #41653D",
"A  c #49693A",
"S  c #546E37",
"D  c #577339",
"F  c #626222",
"G  c #676829",
"H  c #786E25",
"J  c #6B7228",
"K  c #737223",
"L  c #7A7726",
"P  c #687C35",
"I  c #7A7538",
"U  c #2C4944",
"Y  c #2D4C46",
"T  c #354A45",
"R  c #2F504A",
"E  c #31544C",
"W  c #375848",
"Q  c #365C52",
"!  c #385D50",
"~  c #3E6549",
"^  c #3A6252",
"/  c #396A52",
"(  c #3F7050",
")  c #434A43",
"_  c #4A4A40",
"`  c #514F45",
"'  c #485749",
"]  c #565745",
"[  c #5A554B",
"{  c #4E5352",
"}  c #764E43",
"|  c #625B4A",
" . c #7E5044",
".. c #685256",
"X. c #446B42",
"o. c #4A6B42",
"O. c #42624E",
"+. c #426D4D",
"@. c #576549",
"#. c #4C7544",
"$. c #4E7946",
"%. c #48754C",
"&. c #4E7D4D",
"*. c #527D47",
"=. c #5B7946",
"-. c #507E4D",
";. c #426D51",
":. c #5F6C50",
">. c #447151",
",. c #666848",
"<. c #746947",
"1. c #75764F",
"2. c #676658",
"3. c #766C5A",
"4. c #777757",
"5. c #4F5C68",
"6. c #8A3E2C",
"7. c #A53A2C",
"8. c #9C422F",
"9. c #864436",
"0. c #8E5334",
"q. c #AC542E",
"w. c #A94935",
"e. c #BA4C39",
"r. c #A95537",
"t. c #8D732A",
"y. c #97663A",
"u. c #A87728",
"i. c #A2683D",
"p. c #B26538",
"a. c #C34834",
"s. c #C95235",
"d. c #DE5739",
"f. c #C37E2F",
"g. c #C26930",
"h. c #E0673E",
"j. c #924C40",
"k. c #975445",
"l. c #847148",
"z. c #837457",
"x. c #8A7B65",
"c. c #E67E47",
"v. c #F67042",
"b. c #CA6961",
"n. c #7B812C",
"m. c #6B8339",
"M. c #768937",
"N. c #75913D",
"B. c #7E973A",
"V. c #7B933C",
"C. c #5B8345",
"Z. c #56864C",
"A. c #59874A",
"S. c #57884D",
"D. c #5A894C",
"F. c #568B51",
"G. c #668444",
"H. c #648A45",
"J. c #6B8D44",
"K. c #638D49",
"L. c #718E40",
"P. c #748848",
"I. c #6C9146",
"U. c #739242",
"Y. c #888528",
"T. c #928D27",
"R. c #95952A",
"E. c #9B9429",
"W. c #9C9C2D",
"Q. c #878C35",
"!. c #849337",
"~. c #8A9635",
"^. c #8D9835",
"/. c #82963A",
"(. c #869B3B",
"). c #939B32",
"_. c #999E30",
"`. c #AC822C",
"'. c #A79929",
"]. c #A39E2B",
"[. c #B8962C",
"{. c #AB8D31",
"}. c #9FA12F",
"|. c #ADA327",
" X c #A5A12B",
".X c #A9A229",
"XX c #ADAA29",
"oX c #B1A829",
"OX c #ACA63D",
"+X c #948B4B",
"@X c #A4A343",
"#X c #998966",
"$X c #8F8E72",
"%X c #9C8E71",
"&X c #A69275",
"*X c #A3927A",
"=X c #AC9A7C",
"-X c #B69D73",
";X c #B79A74",
":X c #BCA274",
">X c #D28048",
",X c #F1894C",
"<X c #C3A67A",
"1X c #CBB678",
"2X c #798283",
"3X c #858692",
"4X c #B0978C",
"5X c #BBA383",
"6X c #BDA688",
"7X c #BBB8BA",
"8X c #E19A90",
"9X c #C7A982",
"0X c #C4A986",
"qX c #CCAC83",
"wX c #D2AC87",
"eX c #D8B588",
"rX c #E9BE87",
"tX c #E2BC8B",
"yX c #ECC28A",
"uX c #F3C58B",
"iX c #F5C78B",
"pX c #FFCC8C",
"aX c #EBC391",
"sX c #F1C791",
"dX c #F2C995",
"fX c #D7C4B2",
/* pixels */
"pXpXpXpXpXpXpXpXpXpXpXpXpXpXpXpXpXpXpXpXpXpXpXpXpXpXpXpXpXpXpXpXpXpXpXpXpXpXpXpXpXpXpXpX",
"pXpXpXpXpXpXpXpXpXpXpXpXpXpXpXpXpXpXpXpXpXpXpXpXpXpXpXpXpXpXpXpXpXpXpXpXpXpXpXpXpXpXpXpX",
"pXpXpXpXpXpXpXpXpXpXpXpXpXpXpXpXpXpXpXpXpXdXdXdXdXdXdXpXpXpXpXpXpXpXpXpXpXpXpXpXpXpXpXpX",
"pXpXpXpXpXpXpXpXpXpXpXpXpXpXpXpXpXpXpXyX6X*X*X*X*X%X5XtXpXpXpXpXpXpXpXpXpXpXpXpXpXpXpXpX",
"pXpXpXpXpXpXpXpXpXpXpXpXpXpXpXpXpXpXdX=X[ 8 8 d 8 8 _ &XaXpXpXpXpXpXpXpXpXpXpXpXpXpXpXpX",
"pXpXpXpXpXpXpXpXpXpXpXpXpXpXpXpXpXsXwX4., - , , - < < 4.eXdXpXpXpXpXpXpXpXpXpXpXpXpXpXpX",
"pXpXpXpXpXpXpXeX0X5X5X5X5X5X5X5X5X=X$X2.g l g l l l l @.%X9XeXuXpXpXpXpXpXpXpXpXpXpXpXpX",
"pXpXpXpXpXpXeX3.n 8 m m m m m m ) m M o.$.$.*.$.$.$.$.o.' ` | <.#XrXpXpXpXpXpXpXpXpXpXpX",
"pXpXpXpXpXaX%XN $ $ $ $ 3 $ $ # $ y M A S.D.K.J.I.I.J.S u * O , N #XuXpXpXpXpXpXpXpXpXpX",
"pXpXpXdXeX&X1.G F F F F F F F F F F D =.S.K.U./.(.(./.P x O O 1 s 1.:XyXpXpXpXpXpXpXpXpX",
"pXpXpXeX3.N G Y.T.T.T.T.T.T.T.T.T.T.M.G.K.J.!._. X X_.L x + * s Z o.@.#XrXpXpXpXpXpXpXpX",
"pXpXdX%Xb x K E.|.XX|.|..X.X.X.X|.}.).L.J.V.). XXX X_.n.v 2 < f Z A f M #XuXpXpXpXpXpXpX",
"uXtX&X1.F K Y.'.XXoX.X.XoXXXoXoXXX X_.^.!.^.W. X]._.!.M.D g f s f f f s ,.<XpXpXpXpXpXpX",
";X2.,.I Y.T.].]..X.X.X.X.X.X.X.X|. X X}.W.W. X X_.B.J.C.C.#.Z s , , s Z A 4.:XpXpXpXpXpX",
"b , x K E.|.|..X.X X.X.X.X]..X]..X.X X X.X.X|.].^.N.D.A.D.D.D g 3 3 h #.$.l ] :XpXpXpXpX",
"i u C n.].|.XX.X.X.X.X X.X.X.X.X X X.X|..X|.|. X^.J.D.D.I.U.M.J F v D *.Z.l 3 <.iXpXpXpX",
"~ D D Q. X|.|.|. X|. X|. X|. X.X.X.X.X'..X.X|.].).N.A.H.V.).).T.T.Y.m.C.Z.f , N yXpXpXpX",
"Z.D.I.(.W. X|. X|.].|.]. X X X.X.X X X.X.X|..X].^.N.H.N.!.W..X|.]._.+XK.$.f , m eXpXpXpX",
"F.D.U.^. X.X|. X X X X|.|.]..X X.X.X.X.X]..X.X].W.!.B./.). X|.oXoX X(.J.$.k - d qXpXpXpX",
"F.D.I.~. X.X|.|.].|. X|. X|..X X]..X.X.X.X.X.X.X].W._.).W..X|.|.|._.(.J.D k - d qXpXpXpX",
"Z.*.m.B.}. X X X|..X.X.X X.X.X.X.X.X.X.X.X]..X.X X.X X X.X.X X.X].).V.K.$.j , n qXpXpXpX",
"k Z A m.B.).}. X|.|.|.|.XX.X X.X.X.X|..X.X.X.X.X|.|.|.|.|..X].W.^./.U.K.$.f , n 9XpXpXpX",
"- u f S m.U.). X|.|.|.XX|..X.X|..X.X.X.X|..X.X.X|.|.|.|.|.|.W.^.V.J.K.D.$.f , n 9XpXpXpX",
". O 2 h =.N.!.E.W.].W.E.'.'.].'.].].].].].]..X].].].]. X X].).V.J.S.S.S.$.g , n 9XpXpXpX",
"    : b I l.I L J H K L t.`.{.{.Q.Q.Q.~.^.^.^.^.^.^.^.^.^.^.!.L.D.Z.Z.Z.$.l , n 9XpXpXpX",
"  . 0 B 0.0.V c x > $ c t.q.p.y.I =.=.G.L.L.L.J.L.L.L.L.L.L.J.K.A.Z.F.Z.$.g , n 9XpXpXpX",
". O 0 6.e.w.r $ . % > w t w.e.k.| O.+.&.A.D.A.A.S.D.D.A.A.A.A.A.Z.Z.F.D.$.g , n qXpXpXpX",
"y z B 8.a.7.9 o % 4 { ..w.e.a.0.[ Q / %.Z.Z.Z.Z.Z.Z.Z.Z.Z.Z.Z.Z.Z.F.D.D.$.l , n wXpXpXpX",
"K H t.q.a.7.9 o 4 5.3X4Xb.d.e.0.[ Q ^ %.Z.Z.Z.Z.Z.Z.Z.Z.Z.Z.Z.Z.Z.Z.S.S.$.g < _ eXpXpXpX",
"T.E.f.g.s.7.9 @ T 2X7XfX8Xb.e.k.[ ! / &.Z.Z.Z.Z.Z.Z.Z.Z.Z.Z.Z.Z.A.S.S.S.$.h < | yXpXpXpX",
"|.|.[.f.g.q.t z A $XfXfXwXb.i.V [ ;.;.&.Z.A.Z.Z.Z.Z.Z.Z.Z.Z.Z.Z.S.S.F.S.$.g , l.pXpXpXpX",
"oXoX[.[.`.u.t.H M.@X1X1X-X#Xl.,.:.%.%.Z.Z.Z.Z.Z.Z.Z.Z.Z.Z.Z.Z.Z.S.F.D.D.*.g N -XpXpXpXpX",
"|.|.|.'.'.'.E.E.E.OXOXOX+XJ.C.=.Z.-.Z.Z.Z.Z.Z.Z.Z.Z.Z.Z.Z.Z.Z.Z.Z.Z.S.Z.#.j 4.iXpXpXpXpX",
"Y.Y.Y.T._._._._._.R.).~.N.K.S.S.A.S.Z.A.Z.Z.A.Z.S.Z.Z.S.Z.S.S.S.Z.A.*.#.X.,.1XpXpXpXpXpX",
"z v F m.V.B.U././.B.V.M.m.D.S.S.S.S.S.S.A.S.S.S.S.S.S.S.S.S.S.S.S.Z.A l h ;XpXpXpXpXpXpX",
"l.<.P A C.K.I.K.K.H.H.H.D.Z.Z.F.Z.Z.A.Z.Z.Z.Z.Z.Z.Z.Z.A.S.S.S.Z.Z.$.g 1 2.pXpXpXpXpXpXpX",
"pXrX-X1.A &.$.&.&.Z.&.&.Z.Z.&.&.-.-.-.&.Z.&.&.&.-.-.-.-.-.-.Z.$.#.o.' @.eXpXpXpXpXpXpXpX",
"pXpXpX-Xf k ~ +.( >.;.( ( ( +.>.>.>.>.>./ ( ( ( >.>.>.%.>.;.~ ' f @.P.=XpXpXpXpXpXpXpXpX",
"pXpXpXrX,.1 U W ^ ^ ^ ^ ^ ^ ^ ^ ^ ^ ^ ^ ^ ^ / ^ ^ ^ ^ ^ / ! W i < ] 4XsXpXpXpXpXpXpXpXpX",
"pXpXpXpX;X) T Y R Q Q Q Q ^ ^ E E E E { O.{ { { ' E E E Q ! E 7 % [ 5XpXpXpXpXpXpXpXpXpX",
"pXpXpXpXpXqX2.T p Y E Q / ;.O.W a 7 n N } j. .} ` n p a W ~ k i % [ 0XpXpXpXpXpXpXpXpXpX",
"pXpXpXpXpXpX4X) ; 6 E Q ;.%.%.k 5 > e 9.w.w.e.w.6.e > 1 W o.X.i & [ 6XpXpXpXpXpXpXpXpXpX",
"pXpXpXpXpXpXrX_ % 6 R ^ >.%.#.j - @ q 8.s.s.d.a.8.q + - k #.X.s : [ 6XpXpXpXpXpXpXpXpXpX",
"pXpXpXpXpXpXrX| % 4 R Q >.>.X.a = @ r r.v.v.v.h.w.r + = f ~ X.i = _ qXpXpXpXpXpXpXpXpXpX",
"pXpXpXpXpXpXpXz.% 6 R Q ^ / ! p & @ r p.,X,X,Xc.p.r : % p W W i * ` tXpXpXpXpXpXpXpXpXpX",
"pXpXpXpXpXpXpX:X| 7 T E Q Q E 6 % : c i.c.>X,Xc.i.B > = 6 R Y p d x.pXpXpXpXpXpXpXpXpXpX",
"pXpXpXpXpXpXpXpXqX3.W U Y Q R 6 % : w V y.y.i.y.V b 5 ; 6 6 ' 2.=XuXpXpXpXpXpXpXpXpXpXpX",
"pXpXpXpXpXpXpXpXpX0X) ; U E R 6 & X : 3 e e c e b d U p 4 4 { 5XsXpXpXpXpXpXpXpXpXpXpXpX",
"pXpXpXpXpXpXpXpXpXtX3.& 6 Y E 7 = X . X X X X : < U R U 4 = 2.tXpXpXpXpXpXpXpXpXpXpXpXpX",
"pXpXpXpXpXpXpXpXpXuXz.> 5 Y E p = . .           % p E Y 4 & 3.yXpXpXpXpXpXpXpXpXpXpXpXpX"
};
