/* XPM */
static char *e8212f97cf3b4bbcae45b41655445385H12jgd5pnIh4LT3z[] = {
/* columns rows colors chars-per-pixel */
"50 50 190 2 ",
"   c #141D1B",
".  c #1D291D",
"X  c #27361F",
"o  c #1E2622",
"O  c #1E2B23",
"+  c #272C27",
"@  c #213127",
"#  c #293A20",
"$  c #273E29",
"%  c #49352F",
"&  c #653F2C",
"*  c #2B412E",
"=  c #3A5225",
"-  c #3F5A26",
";  c #2F4733",
":  c #2F4E34",
">  c #354734",
",  c #305134",
"<  c #39643D",
"1  c #444A2B",
"2  c #415C26",
"3  c #445F2A",
"4  c #664337",
"5  c #47612B",
"6  c #4F6A29",
"7  c #53732A",
"8  c #5A7D2C",
"9  c #586631",
"0  c #4C783B",
"q  c #66712B",
"w  c #68772C",
"e  c #606932",
"r  c #6E7735",
"t  c #3F6B41",
"y  c #4D4749",
"u  c #4D4949",
"i  c #554847",
"p  c #534949",
"a  c #5B4A48",
"s  c #4B5548",
"d  c #4B5D4A",
"f  c #54534C",
"g  c #5C574D",
"h  c #5B5C48",
"j  c #664C47",
"k  c #6C4E47",
"l  c #654C48",
"z  c #714F48",
"x  c #6B5646",
"c  c #765047",
"v  c #7C5146",
"b  c #765A47",
"n  c #486447",
"m  c #416D43",
"M  c #4B6049",
"N  c #4A6B4A",
"B  c #596749",
"V  c #447546",
"C  c #4F7D47",
"Z  c #467549",
"A  c #4A764A",
"S  c #477D4B",
"D  c #497D4A",
"F  c #597549",
"G  c #537849",
"H  c #5F6C55",
"J  c #6D6A48",
"K  c #71794F",
"L  c #66695A",
"P  c #75785C",
"I  c #737765",
"U  c #AB5C3E",
"Y  c #B55E3F",
"T  c #BD613E",
"R  c #C2633E",
"E  c #CB653D",
"W  c #D66737",
"Q  c #D3673A",
"!  c #D5693C",
"~  c #DA693B",
"^  c #E46D39",
"/  c #E86D39",
"(  c #845346",
")  c #8B5445",
"_  c #865C46",
"`  c #8A5B45",
"'  c #955645",
"]  c #965946",
"[  c #9C5943",
"{  c #975948",
"}  c #A55B42",
"|  c #AA5C41",
" . c #B15E41",
".. c #866754",
"X. c #B76040",
"o. c #B86040",
"O. c #817E67",
"+. c #937A67",
"@. c #A37E63",
"#. c #E47342",
"$. c #5D8F3F",
"%. c #5E913F",
"&. c #66892E",
"*. c #74882F",
"=. c #698A3A",
"-. c #758735",
";. c #679433",
":. c #6C9231",
">. c #6D9D36",
",. c #62943C",
"<. c #699A39",
"1. c #769431",
"2. c #739A32",
"3. c #7B9932",
"4. c #73A233",
"5. c #7BA634",
"6. c #77A834",
"7. c #7DA834",
"8. c #4D8247",
"9. c #4B814A",
"0. c #528545",
"q. c #558A44",
"w. c #5A8D41",
"e. c #748847",
"r. c #7D8556",
"t. c #7A825A",
"y. c #869D32",
"u. c #8D9A35",
"i. c #8DA134",
"p. c #84AA35",
"a. c #8CAD36",
"s. c #95A235",
"d. c #91AF36",
"f. c #9EAC36",
"g. c #9DAC39",
"h. c #8FB036",
"j. c #95B337",
"k. c #9BB437",
"l. c #9CB638",
"z. c #9EB838",
"x. c #A2B638",
"c. c #A6B838",
"v. c #ADBC3A",
"b. c #B0BF3A",
"n. c #B3C23A",
"m. c #889342",
"M. c #838759",
"N. c #948F5D",
"B. c #868566",
"V. c #958C6E",
"C. c #8C8677",
"Z. c #8F887A",
"A. c #9E9171",
"S. c #A3976E",
"D. c #BE8C70",
"F. c #A6997B",
"G. c #B5A47F",
"H. c #C7967F",
"J. c #E5976F",
"K. c #EEA27A",
"L. c #A79B88",
"P. c #ADA389",
"I. c #AFA791",
"U. c #BEAE98",
"Y. c #C39681",
"T. c #C89E88",
"R. c #DBBA8F",
"E. c #C7B495",
"W. c #CAB593",
"Q. c #C6B199",
"!. c #D7BC97",
"~. c #DCBB94",
"^. c #F1A981",
"/. c #CFBCA0",
"(. c #D1BFA3",
"). c #DEC29A",
"_. c #FFCC8C",
"`. c #EDC797",
"'. c #E3C49B",
"]. c #F1C792",
"[. c #F6CA93",
"{. c #FDCE93",
"}. c #F4CD9C",
"|. c #FACE9A",
" X c #E9CAA7",
".X c #F8CDA4",
"XX c #F6D1A3",
"oX c #FAD2A3",
"OX c #F7D5AE",
"+X c #FDD6AD",
/* pixels */
"_._._._._._._._._._._._._._._.}.L                             + R._._._._._._._._._._._._._._._._._.",
"_._._._._._._._._._._._.|.}..XW.K = = = = = = = = = = = = = = 2 G.[._._._._._._._._._._._._._._._._.",
"_._._._._._._._._._._.W.O.B.B.t.-.:.&.:.:.:.:.:.:.:.:.:.1.:.:.:.e.S.S.A.G._._._._._._._._._._._._._.",
"_._._._._._._._.}.~.W.M.w q q 3.j.k.j.j.j.j.j.j.j.j.j.j.j.j.j.j.u.w q q r G.]._._._._._._._._._._._.",
"_._._._._._.{.}.O.1 9 s.v.v.c.v.v.v.v.c.v.v.v.v.v.v.c.v.v.c.v.v.v.c.v.v.c.r 1 1 1 A._._._._._._._._.",
"_._._._.{.P.C.B.m.u.s.f.v.v.b.v.v.v.v.v.v.v.v.v.v.v.v.v.v.v.v.v.v.v.v.v.v.s.u.u.u.m.A.F.R._._._._._.",
"_._._.{.~.K e -.f.v.v.v.v.v.v.v.v.v.v.v.v.v.v.v.v.v.v.v.v.v.v.v.v.v.v.v.v.v.v.v.v.g.-.e N.]._._._._.",
"_._.{.).M.u.s.f.c.b.v.b.c.v.v.b.v.v.v.v.v.v.v.v.v.v.b.v.v.v.v.v.v.v.v.v.v.b.b.b.n.v.f.s.u.N.[._._._.",
"_._.'.M.*.c.n.b.v.v.v.v.v.v.v.v.b.v.v.v.b.v.v.v.v.v.v.v.v.b.v.v.v.v.v.b.v.v.v.c.c.v.b.n.c.*.S.[._._.",
"_.}.P 7 p.k.c.v.v.v.v.v.v.b.v.v.v.v.v.v.v.v.v.v.v.v.v.v.v.v.v.v.v.v.v.v.v.v.v.v.c.x.x.c.c.a.7 V._._.",
"_.}.P 7 6.p.k.v.v.b.v.v.v.v.v.v.v.v.b.v.v.v.b.b.v.v.v.b.v.v.v.v.v.b.v.v.v.v.v.v.k.p.5.d.x.a.7 M._._.",
"_.}.I 8 j.d.x.v.v.v.v.v.v.v.v.b.v.v.v.v.v.v.v.v.v.v.v.v.v.v.b.v.v.b.v.v.v.v.v.v.k.j.a.d.a.7.7 B._._.",
"{.'.P *.c.c.c.v.v.v.v.v.v.b.v.v.v.v.v.v.v.v.v.v.v.v.v.v.v.b.v.v.v.v.v.b.v.v.v.v.c.c.x.j.p.5.8 P `._.",
" XA.e.i.b.b.v.v.v.v.v.v.v.v.v.v.v.v.v.v.v.v.b.v.v.v.v.v.v.v.v.v.v.b.v.v.v.v.v.v.v.b.v.c.j.j.3.e.P.'.",
"o 5 2.l.v.v.v.v.v.v.v.v.v.v.b.v.v.b.v.v.b.v.v.v.v.v.v.b.v.v.v.v.v.v.v.v.v.v.v.v.v.c.v.v.v.v.k.1.3 . ",
"  - 2.l.v.v.v.v.v.v.v.v.v.v.v.v.v.v.v.v.v.v.v.v.v.v.v.v.v.v.b.v.v.v.v.v.v.v.v.v.v.v.v.v.v.v.k.1.-   ",
"  # 6 3.k.v.v.b.v.v.v.v.v.v.v.v.v.v.b.v.v.v.b.b.v.v.v.v.v.b.v.v.v.v.b.v.v.v.b.v.v.v.v.v.v.k.3.6 #   ",
"  . = &.j.c.v.v.b.v.v.v.b.v.v.v.v.v.v.v.v.v.v.v.b.v.v.v.v.v.v.v.v.v.v.v.v.v.v.v.v.v.v.v.c.j.&.2 .   ",
"  X 6 3.k.v.v.v.v.b.v.b.v.v.v.v.v.v.v.v.v.v.v.v.v.v.v.b.v.v.v.v.v.v.v.v.b.v.v.v.v.v.v.v.v.k.3.6 #   ",
"  2 1.d.c.v.v.v.v.b.v.v.v.v.v.v.v.b.v.v.v.b.v.v.v.v.v.v.v.v.v.v.v.b.v.v.v.v.v.v.v.v.v.v.v.v.l.2.-   ",
"  2 :.p.d.c.v.v.v.v.v.v.v.v.v.v.v.v.v.v.v.v.v.v.b.v.v.v.v.b.v.v.b.v.v.v.v.v.v.v.v.v.v.c.b.v.z.2.-   ",
"  2 :.6.a.c.v.v.v.v.v.v.v.v.v.v.v.v.v.v.b.v.v.v.v.v.v.v.v.v.v.v.v.v.v.v.v.v.v.v.b.v.v.v.v.b.x.2.-   ",
". 2 :.6.p.x.c.v.v.v.v.v.v.v.v.v.v.v.v.v.v.v.v.v.v.v.v.v.v.v.v.v.v.v.v.v.v.v.v.c.c.v.v.v.v.v.j.2.- . ",
"@ 5 :.6.5.i.x.v.v.v.v.v.v.v.v.v.v.v.b.v.v.v.v.v.v.v.v.v.v.v.b.v.b.v.v.v.v.v.c.d.g.c.v.v.c.g.a.;.9 + ",
"C.t.=.<.4.6.k.v.v.v.v.v.c.c.c.v.v.v.v.v.v.c.v.v.v.v.v.v.v.v.v.v.v.v.v.v.v.v.c.a.d.k.v.c.k.7.>.e.B.Z.",
"oXW.K 7 4.6.j.v.v.v.v.c.d.a.x.v.v.v.c.v.v.v.v.v.v.v.v.c.c.v.v.v.v.v.b.v.v.v.c.x.j.a.k.k.p.4.&.B.).{.",
" XI.H $.<.4.a.j.c.b.c.d.d.d.c.v.c.k.k.v.v.v.v.v.v.j.z.n.v.v.v.v.v.v.b.v.v.v.v.v.d.5.p.a.4.4.&.e.U.}.",
"I L 9.9.w.>.4.a.x.c.k.a.d.x.v.v.x.d.i.c.v.v.v.v.S.h.j.c.v.v.v.v.c.c.c.c.v.v.v.c.d.6.4.6.4.4.2.;.r.O.",
"o , Z D 0.w.>.6.p.a.p.6.j.v.v.v.x.a.p.c.b.v.v.v.x.7.a.c.v.v.v.v.k.d.a.j.c.v.x.j.p.4.4.4.4.4.4.:.5 o ",
"C.I N t m C ,.<.4.4.4.4.p.k.x.x.d.p.p.k.c.v.v.x.j.7.a.l.v.v.v.x.j.5.4.5.j.x.j.p.4.2.>.>.>.;.&.=.r.C.",
"{.(.L @ : Z 0.w.>.4.4.4.6.5.7.7.y.4.4.p.k.v.c.d.5.4.6.p.l.v.c.a.5.4.4.4.5.p.5.4.4.>.%.%.;.5 # H )._.",
"_._./.L O : m 0.%.2.4.4.4.4.4.4.4.4.4.4.p.d.j.p.5.4.2.5.a.j.d.7.4.4.4.4.2.4.4.4.>.%.8.0 3 # L )._._.",
"_._._.L.o $ < D 0.,.>.4.4.4.>.>.4.4.4.4.6.5.5.4.>.4.4.4.6.6.4.4.4.4.4.4.>.>.>.>.,.0.D t $ O L._._._.",
"_._._.U.@ : m S D 0.,.>.4.>.,.<.>.4.4.4.4.4.>.,.,.>.4.4.>.<.w.>.4.4.4.4.4.<.w.w.0.9.S m : O Q._._._.",
"_._._.U.* V D D D D 0.,.<.,.q.q.<.2.4.4.>.<.<.$.0.>.4.4.4.,.0.w.>.4.4.4.<.w.9.D 9.D 9.9.Z $ E._._._.",
"_._._.U.; V 9.S S 9.9.8.q.8.9.8.q.<.4.>.%.q.8.8.8.>.4.4.4.,.8.9.w.<.4.<.w.9.D S D D S 9.Z ; W._._._.",
"_._._.|.P.n , < V 9.9.D A N S 9.8.w.,.,.0.D D S 8.$.%.,.w.w.9.9.0.w.,.w.0.9.9.9.9.t < : n I.|._._._.",
"_._._._. Xs + > N D A Z d s N Z A D D G A S S 9.8.8.8.8.C 0.G C D 0.C D A A A A S n ; + s }._._._._.",
"_._._._.XXf % 4 J B n d s u s n M M d d d N A D S A D V N B J F C A N M d d n d M d > + f |._._._._.",
"_._._._.XXg & ) ' c l j c j p p a a a a a h F F G A G B f j ( J F F B p p u y y u u p % f |._._._._.",
"_._._._.XXg 4 ' ' ) ' Y E U k k v ( ( ( ( ` ` _ b h x b l j ) ` _ _ ( c i y y y y p z & g |._._._._.",
"_._._.{.Q.( U | [ } R W / E U } X.o.X.X.X.X.X. .| v ] [ ) ) | } ] ' ' v l a l i a z ) ) ( !._._._._.",
"_._._.'...T W R  .T ~ ^ / ~ E Q ~ ~ ~ ~ ~ ~ ~ ! E [  .T | } E | ' ' ' ( a j v l z ( { } } ..`._._._.",
"_._._.R.& W / W E Q / / ^ / / / ^ ^ ^ ^ / / / / ! } R E X.X.!  .' ' ' ( l c ) v ( ) { } | & ~._._._.",
"_._._.`.@.! ^ ^ ^ ~ ^ ^ ^ ^ ^ ^ ^ ^ ^ ^ ^ ^ ^ / ! } T E R T W  .' ' ' ( j v ' ' ' { { ' ' +.[._._._.",
"_._._._.{.J./ #.#.^ ^ ^ ^ / ^ ^ ^ ^ ^ ^ ^ ^ ^ ~ ! } o.~ ~ ! !  .[ ' ' ' ) ) ' { { { { { D.[._._._._.",
"_._._._._.|.oX.X.X^.#.^ ^ ^ ^ ^ ^ ^ ^ ^ ^ ^ / ^ ~ R Q ~ ^ Q T } ' ' ' ' ' ' ' { T. X}.|.{._._._._._.",
"_._._._._._._._._.oX^.K.K.K.K.K.K.K.K.K.K.K.K.K.K.K.K.K.K.K.Y.H.Y.Y.Y.Y.Y.Y.Y.T..X_._._._._._._._._.",
"_._._._._._._._._._.|.oX+X+X+X+X+X+X+X+X+X+X+X+X+X+X+X+X+X+XOXOXOXOXOX.X|.{.{.{._._._._._._._._._._.",
"_._._._._._._._._._._._._._._._._._._._._._._._._._._._._._._._._._._._._._._._._._._._._._._._._._."
};
