/* XPM */
static char *_4c86d4e40ec4422b265c7ca98615b07nlnKTpIVp48SMODn[] = {
/* columns rows colors chars-per-pixel */
"50 50 179 2 ",
"   c #6F683F",
".  c #7D733E",
"X  c #7F6646",
"o  c #7C7345",
"O  c #897E3D",
"+  c #857A3E",
"@  c #806646",
"#  c #826847",
"$  c #846A49",
"%  c #896E4B",
"&  c #847D40",
"*  c #887D47",
"=  c #8E714E",
"-  c #897F55",
";  c #937551",
":  c #957B52",
">  c #9B7C55",
",  c #AE971A",
"<  c #AF981C",
"1  c #B0991B",
"2  c #BDA313",
"3  c #BDA51F",
"4  c #9F8C25",
"5  c #9A8A2D",
"6  c #96873A",
"7  c #9B8D3E",
"8  c #9C8B34",
"9  c #9F913E",
"0  c #9D983D",
"q  c #A08F2C",
"w  c #A59B3B",
"e  c #AC9C3C",
"r  c #A59237",
"t  c #A9962B",
"y  c #B6A62C",
"u  c #AEA63D",
"i  c #B8A63B",
"p  c #B2AD3D",
"a  c #BFAC3B",
"s  c #B6A53B",
"d  c #CCAF0D",
"f  c #D8B705",
"g  c #DDBC01",
"h  c #DFBF0C",
"j  c #D1B209",
"k  c #E1BE01",
"l  c #C2AF3B",
"z  c #CBB73A",
"x  c #C9B53B",
"c  c #D2BD3A",
"v  c #E2C103",
"b  c #E4C30B",
"n  c #E7CD0E",
"m  c #E5C612",
"M  c #E6C814",
"N  c #EACC1B",
"B  c #E8C915",
"V  c #EFD81A",
"C  c #EBD313",
"Z  c #CDC026",
"A  c #DAC029",
"S  c #CEC63B",
"D  c #D6C13A",
"F  c #DBC43A",
"G  c #DFC839",
"H  c #DAD33C",
"J  c #ECCF22",
"K  c #EED227",
"L  c #EFD329",
"P  c #F1D52C",
"I  c #F4DC2C",
"U  c #E3CA33",
"Y  c #E4CC39",
"T  c #E8CF39",
"R  c #EBD339",
"E  c #F2D731",
"W  c #F4DA35",
"Q  c #F0D738",
"!  c #F5DB38",
"~  c #F9DE38",
"^  c #F3E424",
"/  c #F9EE26",
"(  c #F6EC2B",
")  c #E4E33B",
"_  c #E9E93B",
"`  c #F6E136",
"'  c #F5EC35",
"]  c #F7E038",
"[  c #FAE239",
"{  c #FAEB39",
"}  c #F7EB38",
"|  c #FEFD36",
" . c #F6F53A",
".. c #FCF33A",
"X. c #FFFE3A",
"o. c #FBF435",
"O. c #9C8D41",
"+. c #94864A",
"@. c #9E9045",
"#. c #978950",
"$. c #92865D",
"%. c #98895B",
"&. c #A39444",
"*. c #B59E4D",
"=. c #A4845A",
"-. c #A9875D",
";. c #AC8A5E",
":. c #A79751",
">. c #AB9B52",
",. c #AF9F5B",
"<. c #B4A244",
"1. c #BEA941",
"2. c #B8AB4B",
"3. c #B6A456",
"4. c #B9A750",
"5. c #998B63",
"6. c #AF8C60",
"7. c #B28E62",
"8. c #A0916A",
"9. c #B69164",
"0. c #BA9566",
"q. c #B09863",
"w. c #BD9768",
"e. c #BF9969",
"r. c #B79C6B",
"t. c #AC9C74",
"y. c #B09D74",
"u. c #B8A161",
"i. c #B3A376",
"p. c #BCA770",
"a. c #BCAA7C",
"s. c #B5A27B",
"d. c #C5B74C",
"f. c #C49D6C",
"g. c #C9A36C",
"h. c #CDB260",
"j. c #D1B06D",
"k. c #CDA471",
"l. c #D1A773",
"z. c #D4AA74",
"x. c #DAAE78",
"c. c #C8B174",
"v. c #C7B57D",
"b. c #DBB877",
"n. c #D3B17D",
"m. c #DCB079",
"M. c #E3B57D",
"N. c #E7B97F",
"B. c #E8BA7F",
"V. c #ECCE49",
"C. c #E5C84B",
"Z. c #E6C360",
"A. c #EEC865",
"S. c #BFAA83",
"D. c #C8B381",
"F. c #D3B584",
"G. c #DCBA86",
"H. c #D4BC8C",
"J. c #D3B78C",
"K. c #D9BE91",
"L. c #EDBE82",
"P. c #E2BA84",
"I. c #DEC394",
"U. c #F3C386",
"Y. c #F7C688",
"T. c #F9C789",
"R. c #FFCC8C",
"E. c #E8C697",
"W. c #EDC897",
"Q. c #E4C59A",
"!. c #EBCA9D",
"~. c #E2C391",
"^. c #F6CC96",
"/. c #FCCE93",
"(. c #F3CE9D",
"). c #F8CF9C",
"_. c #FDD097",
"`. c #F9D09B",
"'. c #F9D09C",
/* pixels */
"R.R.R.R.R.R.R.R.R.R.R.R.R.R.R.R.R.R.R.R.R.R.K.: o           5.).R.R.R.R.R.R.R.R.R.R.R.R.R.R.R.R.R.R.",
"R.R.R.R.R.R.R.R.R.R.R.R.R.R.R.R.R.R.R.R.R.E.c.e w w e e e e 3.K.Q.Q.^.R.R.R.R.R.R.R.R.R.R.R.R.R.R.R.",
"R.R.R.R.R.R.R.R.R.R.R.R.R.R.R.R.R.R.R._.E.#.a W W ! Q ! ! ! Y O.. * K./.R.R.R.R.R.R.R.R.R.R.R.R.R.R.",
"R.R.R.R.R.R.R.R.R.R.R.R.R.R.R.R.R.R.R.H.,.z T ~ ! ! ~ ! ! ! R F c c ,.D.).R.R.R.R.R.R.R.R.R.R.R.R.R.",
"R.R.R.R.R.R.R.R.R.R.R.R.R.R.R.R.R./.~.>.l Q ~ ! ! ! ! ! ! ! ! [ ~ W z &.H.(.R.R.R.R.R.R.R.R.R.R.R.R.",
"R.R.R.R.R.R.R.R.R.R.R.R.R.R.R.R.R.F.O.F ! ! ! ! ! ! ! ! ! ! ! ~ ! ! ~ Y 9 i.'.R.R.R.R.R.R.R.R.R.R.R.",
"R.R.R.R.R.R.R.R.R.R.R.R.R.R.R.R.F.4.c Q ! ! ! ! ! ! ! ! ! } { [ ! ! ~ W F 2.a.!.R.R.R.R.R.R.R.R.R.R.",
"R.R.R.R.R.R.R.R.R.R.R.R.R.R.R.G.9 D ] ! ! ! ! ! ! W ! ! } ..X.{ ~ ! ~ I I c 5 p.(.R.R.R.R.R.R.R.R.R.",
"R.R.R.R.R.R.R.R.R.R.R.R.R.R.n.<.R ! ! ! ! W W ! ! ! ! { X.X.X.X.{ ! ! E M g f < %.!.R.R.R.R.R.R.R.R.",
"R.R.R.R.R.R.R.R.R.R.R.R.R.R.r.e ! ! ! ! L N K ! ! ! { ..X.X.X.X.X...I M v v k < o Q.R.R.R.R.R.R.R.R.",
"R.R.R.R.R.R.R.R.R.R.R.R.R.R.u.l ! ! W E N m K ! ~ } | X.X.X.X.X.X.X.^ b k k k 2 6 K.'.R.R.R.R.R.R.R.",
"R.R.R.R.R.R.R.R.R.R.R.R.R.j.c R ! ! L m N L W ! ..| X.X.X.X.X.X.X.| } L m g g g d r s.R.R.R.R.R.R.R.",
"R.R.R.R.R.R.R.R.R.R.R.R.R.&.R [ ! ! L b b W [ ..X.X.X.X.X.X.X.X.| } [ W m g g v g 4 $.R.R.R.R.R.R.R.",
"R.R.R.R.R.R.R.R.R.R.R.R.Y.9 T ~ ! ! L b n ` ..X.X.X.X.X.X.X.X.X...] ! W M v v v f 4 5.R.R.R.R.R.R.R.",
"R.R.R.R.R.R.R.R.R.R.R._.P.7 Y [ W W L b n o.X.X.X.X.X.X.X.X.X.[ ! ! ! ! E K b g f 4 5.R.R.R.R.R.R.R.",
"R.R.R.R.R.R.R.R.R.R.R.R.n.7 T [ W ~ U y c X.X.X.X.X.X.X.X.X.{ ] P K P ! ! L v v f 4 5./.R.R.R.R.R.R.",
"R.R.R.R.R.R.R.R.R.R.R.R.G.@.F W ~ ~ F O 0 ' | X.X.X.X.X.| } ! ! K b N ! ! P b g j 4 i./.R.R.R.R.R.R.",
"R.R.R.R.R.R.R.R.R.R.R.R.R.I.:.l ! ..H + 5 m / X.X.X.X...[ ! ! ! W K P ! ! P b 2 8 F.R.R.R.R.R.R.R.R.",
"R.R.R.R.R.R.R.R.R.R.R.R.R.^.$.u } X._ p y m V ( | X...} ! ! ! L P ! ! ! ! P b , o W.R.R.R.R.R.R.R.R.",
"R.R.R.R.R.R.R.R.R.R.R.R.R.^.5.p  .X.X. .} W N n (  .] ! ! ! P m M W ! ! ~ P b , q.R.R.R.R.R.R.R.R.R.",
"R.R.R.R.R.R.R.R.R.R.R.R.R.R.!.v.u ) X.X.X...' ^ ' W B m m m M N P W ! ! [ U t b.R.R.R.R.R.R.R.R.R.R.",
"R.R.R.R.R.R.R.R.R.R.R.R.R.R.R.!.i.d.)  .X.X.X...[ P m b b b B E ! ! ! ! Y d.R.R.R.R.R.R.R.R.R.R.R.R.",
"R.R.R.R.R.R.R.R.R.R.R.R.R.R.R.R.R.a.0 ) X.X.{ ] ! W ! E E E W ! ! ! ! V.R.R.R.R.R.R.R.R.R.R.R.R.R.R.",
"R.R.R.R.R.R.R.R.R.R.R.R.R.R.R.R.R.R.H.2.S } { ! ~ ~ ! ! ! ! ! ~ [ ! Z.R.R.R.R.R.R.R.R.R.R.R.R.R.R.R.",
"R.R.R.R.R.R.R.R.R.R.R.R.R.R.R.R.R.R.R.S.>.c G G G Y ! ! ! ~ W Y C.A.R.R.R.R.R.R.R.R.R.R.R.R.R.R.R.R.",
"R.R.R.R.R.R.R.R.R.R.R.R.R.R.R.R.R.R.R.R.~.+.+ + + w R ! ! [ Y *.g.R.R.R.R.R.R.R.R.R.R.R.R.R.R.R.R.R.",
"R.R.R.R.R.R.R.R.R.R.R.R.R.R.R.R.R.R.R.R.R.R.R.R.R.D.<.i s 1.h.R.R.R.R.R.R.R.R.R.R.R.R.R.R.R.R.R.R.R.",
"R.R.R.R.R.R.R.R.R.R.R.R.R.R.R.R.R.R.R.R.R.R.R.R.R.R.t.- $.%.F.R.R.R.R.R.R.R.R.R.R.R.R.R.R.R.R.R.R.R.",
"R.R.R.R.R.R.R.R.R.R.R.R.R.R.R.R.R.R.R.R.R.R.R.R.R.R.R.R.R.R.R.R.R.R.R.R.R.R.R.R.R.R.R.R.R.R.R.R.R.R.",
"R.R.R.R.R.R.R.R.R.R.R.R.R.R.R.R.R.R.R.R.R.R.R.R.R.R.R.R.R.R.R.R.R.R.R.R.R.R.R.R.R.R.R.R.R.R.R.R.R.R.",
"R.R.R.R.R.R.R.R.R.R.R.R.R.R.R.R.R.R.R.R.R.R.R.R.R.R.T.Y.U.U.U.L.Y.Y.T.R.R.R.R.R.R.R.R.R.R.R.R.R.R.R.",
"R.R.R.R.R.R.R.R.R.R.R.R.R.R.R.R.R.R.R.R.R.U.U.L.M.l.f.-.=.=.=.-.7.e.l.L.Y.R.R.R.R.R.R.R.R.R.R.R.R.R.",
"R.R.R.R.R.R.R.R.R.R.R.R.R.R.R.R.R.T.U.x.g.0.;.> % $ @ @ @ @ @ @ @ $ % > e.M.T.R.R.R.R.R.R.R.R.R.R.R.",
"R.R.R.R.R.R.R.R.R.R.R.R.R.R.R.R.T.M.9.: % $ @ X @ @ X X X X X X @ X @ # % -.m.T.R.R.R.R.R.R.R.R.R.R.",
"R.R.R.R.R.R.R.R.R.R.R.R.R.R.R.R.z.> # X X X X X X X X X X X X X X X @ @ X $ ;.N.R.R.R.R.R.R.R.R.R.R.",
"R.R.R.R.R.R.R.R.R.R.R.R.R.R.T.m.> X X X X X X X X X X X X X X X X X X X X @ = k.T.R.R.R.R.R.R.R.R.R.",
"R.R.R.R.R.R.R.R.R.R.R.R.R.R.U.-.@ X X X X X X X X X X X X X X X X X X X X X $ 9.Y.R.R.R.R.R.R.R.R.R.",
"R.R.R.R.R.R.R.R.R.R.R.R.R.R.z.; @ X X X X X X X X X X X X X X X X X X X X X @ =.Y.R.R.R.R.R.R.R.R.R.",
"R.R.R.R.R.R.R.R.R.R.R.R.R.T.g.$ X X X X X X X X X X X X X X X X X X X X X X @ > U.R.R.R.R.R.R.R.R.R.",
"R.R.R.R.R.R.R.R.R.R.R.R.R.Y.r.$ X X X X X X X X X X X X X X X X X X X X X X @ =.U.R.R.R.R.R.R.R.R.R.",
"R.R.R.R.R.R.R.R.R.R.R.R.R.T.e.$ X X X X X X X X X X X X X X X X X X X X X X X 9.Y.R.R.R.R.R.R.R.R.R.",
"R.R.R.R.R.R.R.R.R.R.R.R.R.T.g.= X X X X X X X X X X X X X X X X X X X X X # $ l.R.R.R.R.R.R.R.R.R.R.",
"R.R.R.R.R.R.R.R.R.R.R.R.R.R.m.; X X X X X X X X X X X X X X X X X X X X X X =.L.R.R.R.R.R.R.R.R.R.R.",
"R.R.R.R.R.R.R.R.R.R.R.R.R.R.L.;.@ X X X X X X X X X X X X X X X X X X X # = l.Y.R.R.R.R.R.R.R.R.R.R.",
"R.R.R.R.R.R.R.R.R.R.R.R.R.R.T.l.; X X X X X X X X X X X X X X X X X X # ; f.U.R.R.R.R.R.R.R.R.R.R.R.",
"R.R.R.R.R.R.R.R.R.R.R.R.R.R.R.U.e.% X X X X X X X X X X X X X X X # = -.z.U.R.R.R.R.R.R.R.R.R.R.R.R.",
"R.R.R.R.R.R.R.R.R.R.R.R.R.R.R.T.L.w.; X X X X X X X X X X X X = : 9.l.L.R.R.R.R.R.R.R.R.R.R.R.R.R.R.",
"R.R.R.R.R.R.R.R.R.R.R.R.R.R.R.R.R.U.l.;.; $ X X X X @ $ $ > 0.z.N.Y.R.T.R.R.R.R.R.R.R.R.R.R.R.R.R.R.",
"R.R.R.R.R.R.R.R.R.R.R.R.R.R.R.R.R.R.T.U.z.e.-.: ; : =.0.z.L.T.T.R.R.R.R.R.R.R.R.R.R.R.R.R.R.R.R.R.R.",
"R.R.R.R.R.R.R.R.R.R.R.R.R.R.R.R.R.R.R.R.R.Y.U.U.L.U.U.T.R.R.R.R.R.R.R.R.R.R.R.R.R.R.R.R.R.R.R.R.R.R."
};
