/* XPM */
static char *e2569107ad6747299464789bb19ccba6gazJPlR5vI1oQJ7m[] = {
/* columns rows colors chars-per-pixel */
"50 50 209 2 ",
"   c #0D161A",
".  c #0B191A",
"X  c #101517",
"o  c #131B1B",
"O  c #1C1D1B",
"+  c #17211E",
"@  c #1B231D",
"#  c #2E291D",
"$  c #30221E",
"%  c #33371E",
"&  c #35381E",
"*  c #3A3D1E",
"=  c #142423",
"-  c #1C2A24",
";  c #1D2C2B",
":  c #1C332C",
">  c #252825",
",  c #312B26",
"<  c #223226",
"1  c #273729",
"2  c #3A3928",
"3  c #273A36",
"4  c #253E3A",
"5  c #383E38",
"6  c #4A2720",
"7  c #4A2922",
"8  c #45322B",
"9  c #433E34",
"0  c #6B2D25",
"q  c #673429",
"w  c #793E32",
"e  c #3E401E",
"r  c #2A432D",
"t  c #3C4827",
"y  c #27413D",
"u  c #2B473C",
"i  c #354838",
"p  c #365335",
"a  c #395636",
"s  c #375839",
"d  c #3E633C",
"f  c #40431F",
"g  c #484827",
"h  c #575B25",
"j  c #5B5B21",
"k  c #49493F",
"l  c #5A4639",
"z  c #4D5231",
"x  c #595337",
"c  c #76483A",
"v  c #615334",
"b  c #675C3A",
"n  c #71523D",
"m  c #456037",
"M  c #5D7639",
"N  c #636222",
"B  c #6D6B23",
"V  c #66692B",
"C  c #647E3B",
"Z  c #717532",
"A  c #2A4642",
"S  c #2C4B46",
"D  c #2E4E49",
"F  c #384F48",
"G  c #2F504B",
"H  c #32554D",
"J  c #385848",
"K  c #325751",
"L  c #345B52",
"P  c #385F51",
"I  c #3B6243",
"U  c #356052",
"Y  c #3B6351",
"T  c #3C6B51",
"R  c #484840",
"E  c #5A4A40",
"W  c #4B5A49",
"Q  c #595545",
"!  c #535349",
"~  c #674F44",
"^  c #675C48",
"/  c #775749",
"(  c #486844",
")  c #446E4F",
"_  c #59624C",
"`  c #4B7545",
"'  c #4E7946",
"]  c #45714F",
"[  c #4E7C4C",
"{  c #527B45",
"}  c #5D744A",
"|  c #507E4D",
" . c #406B50",
".. c #437050",
"X. c #4A7750",
"o. c #667447",
"O. c #797447",
"+. c #756552",
"@. c #786A54",
"#. c #87392B",
"$. c #8B382A",
"%. c #AD3F2E",
"&. c #884634",
"*. c #9B4734",
"=. c #8D5B3E",
"-. c #AA402E",
";. c #A54836",
":. c #B94833",
">. c #B9533A",
",. c #897334",
"<. c #C44732",
"1. c #C84933",
"2. c #D44B34",
"3. c #DB4C35",
"4. c #C55339",
"5. c #E34E36",
"6. c #E94F37",
"7. c #EA5037",
"8. c #8C4F40",
"9. c #825642",
"0. c #965941",
"q. c #97684F",
"w. c #8B7847",
"e. c #897855",
"r. c #AC6948",
"t. c #A87355",
"y. c #C26C4A",
"u. c #788B38",
"i. c #75903F",
"p. c #7B923D",
"a. c #588046",
"s. c #55864C",
"d. c #59874B",
"f. c #57884D",
"g. c #5A894B",
"h. c #648B46",
"j. c #6B8D43",
"k. c #62844F",
"l. c #618B48",
"z. c #718F40",
"x. c #6F9246",
"c. c #749141",
"v. c #668651",
"b. c #758D56",
"n. c #848129",
"m. c #87882A",
"M. c #8B8D2C",
"N. c #938D27",
"B. c #969127",
"V. c #9A9327",
"C. c #969228",
"Z. c #999428",
"A. c #9D9D2D",
"S. c #828F34",
"D. c #879637",
"F. c #899736",
"G. c #8D9835",
"H. c #83963A",
"J. c #85993B",
"K. c #8A9A39",
"L. c #929A33",
"P. c #999D30",
"I. c #A29F2B",
"U. c #9EA333",
"Y. c #ADA227",
"T. c #A5A02B",
"R. c #A9A229",
"E. c #ABA92E",
"W. c #B1A526",
"Q. c #A0A633",
"!. c #93835B",
"~. c #9A8367",
"^. c #929A61",
"/. c #9D8E70",
"(. c #A68964",
"). c #B59669",
"_. c #A08A74",
"`. c #A7967D",
"'. c #B69978",
"]. c #B7A66E",
"[. c #B6A473",
"{. c #C19E6C",
"}. c #CBA474",
"|. c #C8A477",
" X c #D2AB76",
".X c #DCB47C",
"XX c #D8B97C",
"oX c #E1B67F",
"OX c #E3B97F",
"+X c #BBA282",
"@X c #C2A784",
"#X c #C3A884",
"$X c #CBAD85",
"%X c #CDB18E",
"&X c #DBB686",
"*X c #D4B388",
"=X c #D8BB95",
"-X c #E2BC81",
";X c #ECBE83",
":X c #E5BD88",
">X c #EAC083",
",X c #ECC088",
"<X c #F2C386",
"1X c #F5C68A",
"2X c #F8C88A",
"3X c #FFCC8C",
"4X c #E9C597",
"5X c #F9CD96",
"6X c #F2CC9A",
/* pixels */
"3X3X3X3X3X3X3X3X3X3X3X3X3X3X3X3X3X3X3X3X3X3X3X3X3X3X3X3X3X3X3X3X3X3X3X3X3X3X3X3X3X3X3X3X3X3X3X3X3X3X",
"3X3X3X3X3X3X3X3X3X3X3X3X3X3X3X3X3X3X3X3X3X3X3X3X3X3X3X3X3X3X3X3X3X3X3X3X3X3X3X3X3X3X3X3X3X3X3X3X3X3X",
"3X3X3X3X3X3X3X3X3X3X3X3X3X3X3X3X3X3X3X3X3X3X3X3X3X3X3X3X3X3X3X3X3X3X3X3X3X3X3X3X3X3X3X3X3X3X3X3X3X3X",
"3X3X3X3X3X3X3X3X1X&X&X:X,X2X3X3X3X3X3X3X3X3X3X3X3X3X3X3X3X3X3X3X3X3X3X3X3X3X3X3X3X3X3X3X3X3X3X3X3X3X",
"3X3X3X3X3X3X3X Xe.^ ^ ^ ^ e.'.5X3X3X3X3X3X3X3X3X3X3X3X3X3X3X3X3X3X3X3X3X3X3X3X3X3X3X3X3X3X3X3X3X3X3X",
"3X3X3X3X3X3X3X(.x g g g v b O.[.4X3X3X3X3X3X3X3X3X3X3X3X3X3X3X3X3X3X3X3X3X3X3X3X3X3X3X3X3X3X3X3X3X3X",
"3X3X3X3X3X3X3X~.x f j B B B V e./.+X+X'.+X+X+X+X+X#X@X#X@X@X#X$X$X*X&X:X,X2X3X3X3X3X3X3X3X3X3X3X3X3X",
"3X3X3X3X3X3X3X~.z j ,.V.V.V.m.V x R R F R R R R k k k k k k k R R R R Q @.e.'.2X3X3X3X3X3X3X3X3X3X3X",
"3X3X3X3X3X3X;X@.8 N C.Y.E.Q.M.V t : - - < < % % & & 2 % % % % % % % % % % % g !.2X3X3X3X3X3X3X3X3X3X",
"3X3X3X3X3X3X|.R & N C.E.U.K.i.M d p p p p m h N N N N N j N N N N N N N N N N V !.2X3X3X3X3X3X3X3X3X",
"3X3X3X3X3X}.^ # e N C.A.G.z.d.a.M ` ` ` M C u.N.N.N.N.N.N.N.N.N.N.N.N.N.M.B.N.n.V e.2X3X3X3X3X3X3X3X",
"3X3X3X3X}.O.2 % t B M.G.p.h.f.f.g.l.h.g.i.i.F.P.T.R.R.R.R.Y.T.T.R.R.R.R.E.Y.Y.C.B g ).3X3X3X3X3X3X3X",
"o , 2 oX).^ e j B u.u.i.l.f.d.i.i.p.J.J.H.p.K.K.L.T.E.Y.Y.E.Y.Y.Y.E.Y.Y.Y.E.Y.A.m.B N .X3X3X3X3X3X3X",
"o o o   9 * j ,.u.u.i.l.f.f.g.i.G.P.P.U.L.H.i.j.p.G.T.R.Y.R.R.Y.R.R.Y.R.Y.Y.Y.T.V.C.n.w.3X3X3X3X3X3X",
"o o o   O * B V.A.K.i.l.f.f.h.p.P.R.Y.Y.I.F.i.g.x.F.T.R.R.R.R.R.T.T.T.R.R.R.R.R.Y.Y.Z.B ;X3X3X3X3X3X",
"o o o X @ * B I.Y.U.p.i.h.g.h.p.P.W.W.W.T.F.h.f.j.F.I.R.R.R.T.R.R.R.R.R.R.R.R.Y.E.Y.V.u.Z 3X3X3X3X3X",
"o o   X @ * B V.E.E.A.F.z.l.l.p.P.R.Y.Y.T.D.i.g.i.D.I.Y.Y.R.I.R.Y.I.Y.I.Y.I.Y.I.W.W.I.S.a.3X3X3X3X3X",
"o o o X 3X;XN m.V.V.C.M.u.h.l.c.G.A.T.T.P.F.i.d.i.G.A.Y.R.R.I.R.I.W.I.W.I.Y.Y.I.Y.I.I.F.z.&X3X3X3X3X",
"3X3X3X3X3X3X X,.B B B V M { g.j.i.p.D.H.p.p.p.p.D.P.T.R.Y.I.Y.R.I.I.I.Y.Y.I.I.Y.Y.Y.I.K.c.s.3X3X3X3X",
"3X3X3X3X3X3X3X].* * & g m { g.l.h.i.d.i.i.i.D.L.A.A.T.R.R.R.Y.I.W.I.Y.I.I.W.W.I.Y.I.I.K.x.{ 3X3X3X3X",
"3X3X3X3X3X3X3XOXO @ @ 1 a ` s.g.g.h.f.d.i.i.L.I.Y.I.Y.I.I.R.I.Y.Y.I.Y.Y.I.I.W.I.I.I.P.H.j.| 3X3X3X3X",
"3X3X3X3X3X3X3X<Xo @ 1 p m ' d.h.i.i.i.i.i.D.A.R.Y.Y.R.R.Y.Y.R.Y.I.W.W.I.W.Y.Y.I.P.P.K.c.h.| 3X3X3X3X",
"3X3X3X3X3X3X3X3X+ r s ( ' | l.z.p.L.L.L.L.A.T.R.Y.Y.Y.Y.R.Y.R.R.Y.I.W.I.Y.W.I.I.L.p.j.l.g.^.3X3X3X3X",
"3X3X3X3X3X3X3X2X< p ` f.s.s.l.c.L.A.I.I.I.A.I.I.I.I.I.I.I.I.I.I.I.I.I.I.I.I.I.P.H.j.d.d.g.b.3X3X3X;X",
"3X3X3X3X3X3X3X3X< a ' f.f.f.g.z.H.G.L.G.G.G.G.F.G.G.D.F.G.F.F.G.F.F.G.G.G.G.G.D.c.g.s.f.f.k.<X3X3X{.",
"3X3X3X3X3X3X3X3X< a ' f.f.f.g.l.i.i.i.i.i.i.i.i.i.i.i.i.i.i.i.i.z.z.z.z.z.z.z.j.l.f.s.f.f.l.>X3X3X;X",
"3X3X3X3X3X3X3X3Xz a ` f.f.f.f.f.s.d.d.d.g.d.s.d.a.f.g.d.g.f.a.f.s.d.d.d.g.g.d.g.d.d.f.f.g.v.-X3X3X3X",
"3X3X3X3X3X3X3X3Xe.p ` f.f.f.f.f.s.s.s.s.s.s.s.s.s.s.s.s.s.s.s.s.s.s.s.s.s.s.s.s.f.s.f.f.f.b.&X3X3X3X",
"3X3X3X3X3X3X3X3X).p ` f.d.s.s.s.s.s.s.s.s.s.s.s.s.s.s.s.s.s.s.s.s.s.s.s.s.s.s.s.s.s.s.f.f.b.,X3X3X2X",
"3X3X3X3X3X3X3X3X|.a ` f.f.s.s.s.s.s.s.s.s.s.s.s.s.s.s.s.s.s.s.s.s.s.s.s.s.s.s.s.s.s.s.f.g.^.3X3X3X).",
"3X3X3X3X3X3X3X3X Xa [ f.g.f.s.s.s.s.s.s.s.s.s.s.s.s.s.s.s.s.s.s.s.s.s.s.s.s.s.s.f.f.s.f.f.[.3X3X3X-X",
"3X3X3X3X3X3X3X3X.Xa ' g.g.f.s.s.s.s.s.s.s.s.f.s.s.s.s.s.s.s.s.s.s.s.f.s.s.s.s.f.f.f.f.g.f.-X3X3X3X3X",
"3X3X3X3X3X3X3X3X<Xp ' d.g.s.s.s.s.s.s.s.s.s.s.s.s.s.s.s.s.s.s.s.s.s.s.s.s.s.s.s.s.s.s.f.f.2X3X3X3X3X",
"3X3X3X3X3X3X3X3X3X( ( ` | s.s.f.f.s.f.s.f.f.f.f.f.s.s.f.s.f.f.f.s.f.s.f.s.f.f.f.f.d.s.' XX3X3X3X3X3X",
"3X3X3X3X3X3X3X3X3X~.( a m s.d.g.g.f.s.d.f.f.f.d.f.d.f.f.g.f.d.s.f.d.f.f.d.f.f.s.g.g.s.].3X3X3X3X3X3X",
"3X3X3X3X3X3X3X3X3X:X! 1 s ` f.f.d.s.s.s.s.s.s.s.f.s.s.s.s.s.s.s.f.s.s.s.s.s.s.s.f.f.[ XX3X3X3X3X3X3X",
"3X3X3X3X3X3X3X3X3X<X! - r d ` ' ' | | | | | | | [ s.| | | | | | [ s.[ | | | s.[ [ ' o.OX3X3X1X3X3X3X",
"3X3X3X3X3X3X3X3X3X2X! o : r p d )  . .X.] ]  .] ) ) ) ] ) ] ) ) ) ) ) ) ] .. .) I s ).oX>XOX*X3X3X3X",
"3X3X3X3X3X3X3X3X3X2X! o + @ : u J Y Y P Y Y Y P P P Y P Y Y P Y P P Y Y Y Y Y J u 3 ;X;XoX X[.6X5X5X",
"3X3X3X3X3X3X3X3X3X;XQ $ $ $ , i F Y L L P P P P P P P Y Y P Y P P P P P P P P H i 9 ;X<X X(._.=X6X6X",
"3X3X3X3X3X3X3X3X3X|./ 0 0 0 q l W  . .L L Y Y ) ] ) ] ] )  .) ]  . .Y L L P  . .x n t.t.=.c q.+X%X=X",
"3X3X3X3X3X3X3X3X3Xt.*.%.%.%.*.n o.X. .Y L Y X.X.| | | | | | | | X.X. .P P  .X.} w.r.r.>.:.-.8./ +.+.",
"3X3X3X3X3X3X3X3X(.0.<.2.5.3.4.=.o.| ..Y Y  .X.| | | | | | | | | | X. .Y Y  .X.o.t.y.2.3.3.:.#.7 O o ",
"3X3X3X3X3X3X3X;Xn 0.4.5.7.7.4.=.o...T L L Y  .X.X.X.X.X.X.X.X.X.X...Y P U Y ..} t.>.3.7.6.1.$.7 O   ",
"3X3X3X3X3X3X3X}.n 0.<.5.5.5.>.=._ P L L L L L  . . . . . .P  . . . .L L L L U  .9.>.2.6.3.<.#.7 O   ",
"3X3X3X3X3X3X3X;X/ 8.>.<.1.<.;.=.! L L L L L L L L L H G H H K K L L L L L K L W / ;.<.<.1.:.&.l 9 5 ",
"3X3X3X3X3X3X3X3X|.t.0.$.$.$.w l ! K K L L L L K G A y y 4 4 A D H L L K L K L R E w #.$.$.8.q.t.`.+X",
"3X3X3X3X3X3X3X3X5X'.~ 7 6 7 8 9 F L L L L L L K S 3 ; ; ; ; 3 A H L L L L L L K R , 7 6 7 ~ e.%X=X6X",
"3X3X3X3X3X3X3X3X3X#X! O O O - 3 S K L L L L L L A ; = o o + ; y H L L L L L L K 4 > O O O 9 +X=X4X2X",
"3X3X3X3X3X3X3X3X3X*X! .   . = 3 S K L L L L L K A < O X X o - 4 G L L L L L L D 4 =       5 +X6X3X5X"
};
