/* XPM */
static char *_1f1b8eb17e34274dc71cf8593f95f74gRJC8lCr3O9mL26a[] = {
/* columns rows colors chars-per-pixel */
"43 50 234 2 ",
"   c #131A1B",
".  c #271B1F",
"X  c #19231F",
"o  c #27261E",
"O  c #2C331D",
"+  c #32321D",
"@  c #1C2521",
"#  c #1E2B24",
"$  c #172728",
"%  c #1C322B",
"&  c #1E3A39",
"*  c #252A25",
"=  c #2A2A23",
"-  c #242D29",
";  c #3A2922",
":  c #2E3226",
">  c #25332A",
",  c #27392B",
"<  c #363529",
"1  c #252E36",
"2  c #243A37",
"3  c #363D33",
"4  c #51331E",
"5  c #5A2822",
"6  c #433724",
"7  c #49352F",
"8  c #573228",
"9  c #653728",
"0  c #6C3329",
"q  c #2A422E",
"w  c #3A4629",
"e  c #3C512F",
"r  c #2E4933",
"t  c #29453A",
"y  c #314C32",
"u  c #36493A",
"i  c #375638",
"p  c #3E623C",
"a  c #4E4E1E",
"s  c #5E611E",
"d  c #69621E",
"f  c #454720",
"g  c #554E2A",
"h  c #4B5528",
"j  c #555723",
"k  c #46483A",
"l  c #574F39",
"z  c #48593B",
"x  c #6A4527",
"c  c #7E4529",
"v  c #6A493B",
"b  c #645D36",
"n  c #5B652B",
"m  c #48673B",
"M  c #5B7639",
"N  c #686725",
"B  c #747224",
"V  c #787829",
"C  c #726E31",
"Z  c #657C37",
"A  c #283741",
"S  c #2B4A46",
"D  c #2D4D45",
"F  c #354C46",
"G  c #2F514A",
"H  c #355742",
"J  c #31544B",
"K  c #355A4B",
"L  c #325650",
"P  c #365D52",
"I  c #3A5D51",
"U  c #3C6249",
"Y  c #356153",
"T  c #3B6352",
"R  c #3D6A51",
"E  c #494C44",
"W  c #47584A",
"Q  c #55574A",
"!  c #5A554B",
"~  c #465255",
"^  c #714D45",
"/  c #685A45",
"(  c #765646",
")  c #645E52",
"_  c #426643",
"`  c #4A6646",
"'  c #456B41",
"]  c #436C4A",
"[  c #596749",
"{  c #477044",
"}  c #4C7646",
"|  c #46764F",
" . c #4A764E",
".. c #4B7A4E",
"X. c #567A46",
"o. c #517E4A",
"O. c #416C52",
"+. c #5C6A50",
"@. c #447351",
"#. c #497851",
"$. c #6A614B",
"%. c #746449",
"&. c #756A48",
"*. c #637A47",
"=. c #787548",
"-. c #6A6756",
";. c #6E6B5A",
":. c #756C53",
">. c #736B5E",
",. c #6A7151",
"<. c #7A735A",
"1. c #4E5B66",
"2. c #695B61",
"3. c #766E60",
"4. c #7B7162",
"5. c #727C7C",
"6. c #963A2D",
"7. c #A2382C",
"8. c #99422E",
"9. c #9F532A",
"0. c #804830",
"q. c #994C34",
"w. c #875636",
"e. c #A8452E",
"r. c #A64A37",
"t. c #B84B35",
"y. c #A55639",
"u. c #BC5B33",
"i. c #817726",
"p. c #82683D",
"a. c #A5762B",
"s. c #B57C2D",
"d. c #A9693C",
"f. c #C54A37",
"g. c #C55136",
"h. c #DA5839",
"j. c #E35A3A",
"k. c #CA6C34",
"l. c #884E41",
"z. c #92544C",
"x. c #B94F44",
"c. c #876D48",
"v. c #857758",
"b. c #B06143",
"n. c #827663",
"m. c #C55540",
"M. c #CF754A",
"N. c #F07042",
"B. c #DA7867",
"V. c #7D822C",
"C. c #6D873B",
"Z. c #798939",
"A. c #7D9334",
"S. c #74903E",
"D. c #7C933C",
"F. c #5A8346",
"G. c #55854C",
"H. c #59874A",
"J. c #56884C",
"K. c #5A894B",
"L. c #668446",
"P. c #658B45",
"I. c #6B8D43",
"U. c #618B49",
"Y. c #748B40",
"T. c #6D9145",
"R. c #63904B",
"E. c #749240",
"W. c #7A9843",
"Q. c #8A8728",
"!. c #968D27",
"~. c #8E912D",
"^. c #9B9629",
"/. c #9B962A",
"(. c #9C9D2E",
"). c #838936",
"_. c #8A9635",
"`. c #8C9935",
"'. c #839539",
"]. c #879938",
"[. c #939B32",
"{. c #989C30",
"}. c #A8942B",
"|. c #A39E2A",
" X c #B89E2C",
".X c #98A134",
"XX c #ADA327",
"oX c #A6A12B",
"OX c #A9A229",
"+X c #AFA82A",
"@X c #B0A62A",
"#X c #C1912D",
"$X c #92964D",
"%X c #A68957",
"&X c #AEA845",
"*X c #8A8267",
"=X c #968766",
"-X c #8D8B72",
";X c #9A8E73",
":X c #A99269",
">X c #B2976C",
",X c #AA9779",
"<X c #BEAF72",
"1X c #DF874B",
"2X c #E8894C",
"3X c #F6864B",
"4X c #F99752",
"5X c #C9A878",
"6X c #CABD7E",
"7X c #E1B77F",
"8X c #B49F84",
"9X c #A9969E",
"0X c #BAA487",
"qX c #BCA688",
"wX c #9B9DA3",
"eX c #C38483",
"rX c #C7AB85",
"tX c #CEB18A",
"yX c #DAB789",
"uX c #D6B692",
"iX c #DCBB91",
"pX c #E5BC89",
"aX c #E2BD8E",
"sX c #E2A79F",
"dX c #E1BE91",
"fX c #C2BEA5",
"gX c #E9C18E",
"hX c #F5C78D",
"jX c #FFCC8C",
"kX c #E7C293",
"lX c #F6CB95",
"zX c #FBCC92",
"xX c #DECCB3",
"cX c #D8C4C3",
/* pixels */
"jXjXjXjXjXjXjXjXjXjXjXjXjXjXjXjXjXjXjXjXjXjXjXjXjXjXjXjXjXjXjXjXjXjXjXjXjXjXjXjXjXjXjX",
"jXjXjXjXjXjXjXjXjXjXjXjXjXjXjXjXjXjXjXjXjXjXjXjXjXjXjXjXjXjXjXjXjXjXjXjXjXjXjXjXjXjXjX",
"jXjXjXjXjXjXjXjXjXjXjXjXjXjXjXjXjXjXjXjXjXjXjXjXjXjXjXjXlXlXlXlXlXlXlXzXjXjXjXjXjXjXjX",
"jXjXjXjXjXjXjXjXjXjXjXjXjXjXjXjXjXjXjXjXjXjXjXjXjXjXzXuXqX8X0X0X0X0XqXuXlXjXjXjXjXjXjX",
"jXjXjXjXjXjXjXjXjXjXjXjXjXjXjXjXjXjXjXjXjXjXjXjXjXjXdX=X! E Q ! Q k ) ;XdXzXjXjXjXjXzX",
"jXjXjXjXjXjXjXjXjXjXjXjXjXjXjXjXjXjXjXjXjXjXjXjXjXlXrX! * # @ @ # # > -.qXlXzXjXzXzXzX",
"jXjXjXjXjXjXjXjXjXjXjXjXjXjXzXkXaXaXaXiXiXaXaXkXgXtX;XW y r y r r r r [ -XtXiXkXiXuXuX",
"jXjXjXjXjXjXjXjXjXjXjXjXjXhX,X4.;.>.3.3.3.3.4.n.4.<.+.' m { ' m ' m U { +.;.4.4.3.3.<.",
"jXjXjXjXjXjXjXjXjXjXjXjXjX5X! : O : : + : : : : : w z m J.J.H.F.J.K.F.m i , * * * : > ",
"jXjXjXjXjXjXjXjXjXjXjXjXyX=Xn f f f f f f f f f f h m F.K.R.T.S.W.W.S.M h * X X > , q ",
"jXjXjXjXjXjXjXjXjXjXjX5X=X&.B B B B B B B B B B V B F.F.R.T.D.]..X.X].V h O X % y p m ",
"jXjXjXjXjXjXjXjXjXjXrX$.g N Q.^.|.^.^.^.^.^.^.^.^._.Z.F.U.S.].|.oXoX(.V.j o # q m } o.",
"jXjXjXjXjXjXjXjXjXpX*Xg j V ^.XX@XXX+XXXOXOX+XXXOX.X].S.S.'.{.oXOXoX.XV.j w q r i { { ",
"jXjXjXjXjXjXjXjXpX;XC d B !.|.+X@X+X+XOX+XOX+XXX+XoX{._.].[.(.oX(.[.A.C.M p i r y y [ ",
"jXjXjXjXjXjXjXtX&.b C Q.^.|.|.OXOXOXOXOXoXXXXXoXOXoX|.(.(.oXXX|..XD.C.F.G.} m i , k %.",
"jXjXjXjXjXjXyX>.w h V |.OX+X|.XXOX|.XXoXXXoXoXXXoXOXXXoXoXoXXX|.`.S.K.J.K.H.M m w O b ",
"jXjXjXjXhXtX*XQ e n A.oX+XXXOXoXoXOXoXXXOXoXOXOXOXOXXXXXXXXXXX/.`.Y.K.K.I.E.Z.C n a a ",
"jXjXjXgX,X;.` _ m C.~.|.XXXXOXOXXXoXXX|.OXoXOXoXOXoX|.XXOXOXXXoX`.I.K.K.E.].[.~.Q.Q.Q.",
"jXjXjXtX) > r ' F.S.`.|.OXOXoXOX|.XX|.XXoXOXOXOXoXOXOXOXOXOXOXoX[.Y.P.I.'.(.oX|.|.|.|.",
"jXjXhXrXE # y { R.W.[.oXXXXXOXOXXXoXOXoXOXOXoXoXOX|.OX|.OXOXOX|.{.'.S.D.[.(.OX+XXXXXXX",
"jXjXjXrXE @ y ' K.W..XoXXXXXOXoX|.OXOXoXOXoXOXOX|.OX|.OXoX|.OX|.|.[.[.[.(.|.OX+XXXXXXX",
"jXjXjXyX) > y ' F.S.`.|.OXOXOXOXOXOXOXOXoXXXoXOXOXOXOXOXOXOXOXXXoX|.|.|.|.OX|.oXoXXXoX",
"jXjXjXhX,X;.` ` m C.A.`..XoXOXOXOXXXOXOXoXOXOXOXOXXXXXOX|.OXOX|.OXXXXXXXXXXXoX(.(.[.[.",
"jXjXjXjXjXrX-X+.i m M S.]..XoX+X@X+XOXOXOXOXOXOXXXXXXXXXXXXXXXXXXXXXXXXXXXXXoX{._.D.S.",
"jXjXjXjXjXhXqX-., y m L.D.[.|.OXXXXX}.XX|.OX|.}.OXoX|.|.XX|.XXOXoXoXOXOXOXOX(._.Y.U.U.",
"jXjXjXjXjXjXuX>.* 3 z *.Y.).Q.!.Q.!.!.!.}.}.}.}.~.^.[.(.(.(.(.(.(.(.(.(.(.(.[.D.P.G.G.",
"jXjXjXjXjXjXuX>.* ; v p.p.C B N s s d i.a.s.a.$XZ.Z.Z.'.'.'.'.'.'.'.'.'.'.'.D.Y.U.G.G.",
"jXjXjXjXjXjXuX;.= 4 0.9.q.x 6 < O + 6 x 9.u.y.c.$.} X.P.I.I.I.I.I.I.I.I.I.I.P.U.H.G.J.",
"jXjXjXjXjXjXrX;.; 9 8.t.7.0 ;   X * < 0 7.m.r.( ` R R G.H.K.K.G.G.G.G.G.H.J.H.G.J.G.H.",
"jXjXjXjXjXuX,X&.j 0.e.f.7.5 . $ 2 ~ 2.z.x.f.r.^ I Y R #.G.G.G.G.G.G.G.G.G.G.G.G.G.J.G.",
"jXjXjXjXrX*X=.Z i.9.u.f.7.5 . 1 1.wX9XeXM.m.r.^ ~ P R G.G.G.G.G.G.G.G.G.G.G.G.G.G.J.G.",
"jXjXjXaX>.k j Q.!.s.k.g.7.5 = A 5.fXcXsXB.m.q.^ W T @.#.G.J.J.G.G.G.G.G.G.G.G.J.J.G.G.",
"jXjXjXyXE O j Q.}.#Xk.k.9.x 4 b -XfXxXuXB.b.w./ ` R | G.G.G.J.G.K.G.G.G.G.H.G.G.G.H.H.",
"jXjXjXgXk O j Q.@X X#Xs.a.i.B V $X6X6X<X%Xc.&.,.+.| | G.G.K.G.G.G.G.J.G.G.G.J.G.G.G.G.",
"jXjXjXjX%.O j Q.|.@X X}.}.!.!.!..X&X&X$XW.*.*.o...G.G.G.G.G.G.G.G.G.K.G.G.J.J.G.J.G.G.",
"jXjXjXjXyX&.b V !.^.^.(.(.(.(.(.|.(..XA.I.H.K.G.J.G.G.G.G.G.K.G.J.G.G.G.G.G.G.J.J.G.J.",
"jXjXjXjXjXhX=XC n V Z.'.].].].]._._.A.S.K.J.J.J.K.J.K.J.J.J.G.G.J.J.K.G.K.G.J.H.J.J.K.",
"jXjXjXjXjXjXjX=.f h M I.T.E.T.T.I.I.C.H.K.J.J.G.J.J.G.G.J.J.K.G.J.J.H.J.G.K.H.J.J.K.K.",
"jXjXjXjXjXjXjXhX$.y m } G.H.J.J.G.G.G.G.G.G.o.G.G.G.o.G.o.G.o.G.o.G.o.G.G.o.G.o.o.o.o.",
"jXjXjXjXjXjXjXjXjX>X,.i _ ] @.#.|  .|  . . .#.#.#.#.#.| #.#.| | #.#.#.#.#.@. .] _ ` [ ",
"jXjXjXjXjXjXjXjXjXjX6Xz u H U R R R O.T O.O.R O.O.O.R R R R R T R R R O.O.R U H <.:X>X",
"jXjXjXjXjXjXjXjXjXjXjX>Xl D J P P P P P P I U Y P P K I I I I I I I P I T P J v.7XjXjX",
"jXjXjXjXjXjXjXjXjXjXjXjX5X;.W S G L P P I T I J D F ~ Q ! ! ! ! E F F J K I ` ;XjXjXjX",
"jXjXjXjXjXjXjXjXjXjXjXjXjXrXQ t S L P R O.] U t 2 3 8 ^ l.l.l.l.v k 2 t H U ` ,.5XjXc.",
"jXjXjXjXjXjXjXjXjXjXjXjXjXjX<.> 2 D P O.#.} p t - ; 0 q.t.g.g.t.6.7 * > i | { _ :.>X  ",
"jXjXjXjXjXjXjXjXjXjXjXjXjXjXn.# 2 S P O.#.| p q @ ; 0 t.h.j.m.h.6.8 o % y { { i k c.g ",
"jXjXjXjXjXjXjXjXjXjXjXjXjXjX=X* 2 S P R @.| H , @ ; c u.M.N.N.k.y.8 o @ r U _ u w / %.",
"jXjXjXjXjXjXjXjXjXjXjXjXjXjX:X* 2 D P T T K D % @ ; c M.N.3X3X1Xd.9 o $ t K K t u / %.",
"jXjXjXjXjXjXjXjXjXjXjXjXjXjX>X- 1 D L Y Y P S % @ ; w.M.2X4X4X1Xd.9 o $ & G G t k %.%.",
"jXjXjXjXjXjXjXjXjXjXjXjXjXjX:X* 2 D L P P L S $ @ < w.M.4X4X4X1Xd.x * $ & G S t k $.&."
};
