/* XPM */
static char *f2ef6e2c36894beadad4908a59a4cd19hf1yD84UX4eapWof[] = {
/* columns rows colors chars-per-pixel */
"44 50 226 2 ",
"   c #0A1418",
".  c #141B1B",
"X  c #1B1F1D",
"o  c #271B1F",
"O  c #1C221E",
"+  c #23271E",
"@  c #29241E",
"#  c #342A1F",
"$  c #33371E",
"%  c #172727",
"&  c #1A2523",
"*  c #1C2A24",
"=  c #1A2A29",
"-  c #1F322B",
";  c #1F3633",
":  c #282A25",
">  c #302A29",
",  c #233427",
"<  c #233529",
"1  c #26392B",
"2  c #2B3A29",
"3  c #333E26",
"4  c #243634",
"5  c #243A34",
"6  c #233D3A",
"7  c #2B3E3A",
"8  c #373A35",
"9  c #612A1F",
"0  c #4E2F23",
"q  c #5C2923",
"w  c #463627",
"e  c #523A2B",
"r  c #653927",
"t  c #703328",
"y  c #3A411B",
"u  c #374A2C",
"i  c #2B4637",
"p  c #26423C",
"a  c #2C4B3D",
"s  c #324D33",
"d  c #3A453A",
"f  c #355336",
"g  c #395636",
"h  c #3D5737",
"j  c #365638",
"k  c #36593B",
"l  c #3A5A38",
"z  c #484922",
"x  c #584627",
"c  c #585B24",
"v  c #494636",
"b  c #42433B",
"n  c #49493F",
"m  c #435636",
"M  c #4A5232",
"N  c #55543B",
"B  c #66442A",
"V  c #754F31",
"C  c #53632F",
"Z  c #41653D",
"A  c #49693A",
"S  c #546E37",
"D  c #577339",
"F  c #626222",
"G  c #676829",
"H  c #786E25",
"J  c #6B7228",
"K  c #737223",
"L  c #7A7726",
"P  c #687C35",
"I  c #7A7538",
"U  c #2C4944",
"Y  c #2D4C46",
"T  c #354A45",
"R  c #2F504A",
"E  c #31544C",
"W  c #375848",
"Q  c #365C52",
"!  c #385D50",
"~  c #3E6549",
"^  c #3A6252",
"/  c #396A52",
"(  c #3F7050",
")  c #434A43",
"_  c #4A4A40",
"`  c #514F45",
"'  c #485749",
"]  c #565745",
"[  c #5A554B",
"{  c #4E5352",
"}  c #614940",
"|  c #764E43",
" . c #625B4A",
".. c #7E5044",
"X. c #685256",
"o. c #4A6B42",
"O. c #42624E",
"+. c #426D4D",
"@. c #576549",
"#. c #4C7544",
"$. c #4E7946",
"%. c #48754C",
"&. c #4E7D4D",
"*. c #527D47",
"=. c #5B7946",
"-. c #507E4D",
";. c #426D51",
":. c #5F6C50",
">. c #447151",
",. c #666848",
"<. c #746947",
"1. c #75764F",
"2. c #676658",
"3. c #766C5A",
"4. c #777757",
"5. c #4F5C68",
"6. c #787762",
"7. c #8A3E2C",
"8. c #A53A2C",
"9. c #9C422F",
"0. c #864436",
"q. c #8E5334",
"w. c #AC542E",
"e. c #A94935",
"r. c #BA4C39",
"t. c #A95537",
"y. c #8D732A",
"u. c #97663A",
"i. c #A87728",
"p. c #A2683D",
"a. c #B26538",
"s. c #C34834",
"d. c #C95235",
"f. c #DE5739",
"g. c #C37E2F",
"h. c #C26930",
"j. c #924C40",
"k. c #975445",
"l. c #847148",
"z. c #837457",
"x. c #8A7B65",
"c. c #CB7057",
"v. c #E67E47",
"b. c #F67042",
"n. c #CA6961",
"m. c #7B812C",
"M. c #6B8339",
"N. c #768937",
"B. c #75913D",
"V. c #7E973A",
"C. c #7B933C",
"Z. c #5B8345",
"A. c #56864C",
"S. c #59874A",
"D. c #57884D",
"F. c #5A894C",
"G. c #568B51",
"H. c #648A45",
"J. c #6B8D44",
"K. c #638D49",
"L. c #718E40",
"P. c #748848",
"I. c #6C9146",
"U. c #739242",
"Y. c #888528",
"T. c #928D27",
"R. c #95952A",
"E. c #9B9429",
"W. c #9C9C2D",
"Q. c #878C35",
"!. c #849337",
"~. c #8A9635",
"^. c #8D9835",
"/. c #82963A",
"(. c #869B3B",
"). c #939B32",
"_. c #999E30",
"`. c #AC822C",
"'. c #A79929",
"]. c #A39E2B",
"[. c #B8962C",
"{. c #AB8D31",
"}. c #9FA12F",
"|. c #ADA327",
" X c #A5A12B",
".X c #A9A229",
"XX c #ADAA29",
"oX c #B1A829",
"OX c #ACA63D",
"+X c #948B4B",
"@X c #A19D56",
"#X c #998966",
"$X c #8F8E72",
"%X c #9C8E71",
"&X c #AD9468",
"*X c #A69275",
"=X c #A3927A",
"-X c #AC9A7C",
";X c #B69D73",
":X c #B79A74",
">X c #BCA274",
",X c #D28048",
"<X c #F1894C",
"1X c #C3A67A",
"2X c #CBB678",
"3X c #798283",
"4X c #B0978C",
"5X c #BBA383",
"6X c #BDA688",
"7X c #BBB8BA",
"8X c #E19A90",
"9X c #C7A982",
"0X c #C4A986",
"qX c #CCAC83",
"wX c #D2AC87",
"eX c #D8B588",
"rX c #E9BE87",
"tX c #E2BC8B",
"yX c #ECC28A",
"uX c #F3C58B",
"iX c #F5C78B",
"pX c #FFCC8C",
"aX c #EBC391",
"sX c #F1C791",
"dX c #F2C995",
"fX c #D7C4B2",
/* pixels */
"pXpXpXpXpXpXpXpXpXpXpXpXpXpXpXpXpXpXpXpXpXpXpXpXpXpXpXpXpXpXpXpXpXpXpXpXpXpXpXpXpXpXpXpX",
"pXpXpXpXpXpXpXpXpXpXpXpXpXpXpXpXpXpXpXpXpXpXpXpXpXpXpXpXpXpXpXpXpXpXpXpXpXpXpXpXpXpXpXpX",
"pXpXpXpXpXpXpXpXpXpXpXpXpXpXpXpXpXiXdXdXdXdXdXpXpXpXpXpXpXpXpXpXpXpXpXpXpXpXpXpXpXpXpXpX",
"pXpXpXpXpXpXpXpXpXpXpXpXpXpXpXpXeX4X4X%X=X=X=X5XaXpXpXpXpXpXpXpXpXpXpXpXpXpXpXpXpXpXpXpX",
"pXpXpXpXpXpXpXpXpXpXpXpXpXpXpXsX*X] 2 8 8 8 8 ] -XdXpXpXpXpXpXpXpXpXpXpXpXpXpXpXpXpXpXpX",
"pXpXpXpXpXpXpXpXpXpXpXpXpXpXiXeX4.< < < < < < 1 6.wXdXpXpXpXpXpXpXpXpXpXpXpXpXpXpXpXpXpX",
"pXpXpXpXpXpXpXpXpXpXpXpXuXeX1X%X@.k k k h h k h :.$X4X>X5X5X6X5X5X5X5X0XeXpXpXpXpXpXpXpX",
"pXpXpXpXpXpXpXpXpXpXrX#X<.,.` Z o.$.$.*.*.$.*.#.o.m _ b _ n _ ) n n 8 T 3.eXpXpXpXpXpXpX",
"pXpXpXpXpXpXpXpXpXyX&XM 2 O O s D J.I.I.I.K.F.A.o.m y 2 $ $ $ $ $ $ $ $ N %XaXpXpXpXpXpX",
"pXpXpXpXpXpXpXpXyX;X1.s - O O z P (.(.(./.U.K.F.D S G F F F F F F F F F G 1.%XtXpXpXpXpX",
"pXpXpXpXpXpXpXyX#X=.A ~ s O + z L _. X}._./.J.H.J.N.T.T.T.T.T.T.T.T.T.T.Y.G N 3.eXpXpXpX",
"pXpXpXpXpXpXuX#Xv g Z Z f , u c L W. X X X).C.J.B.^. X.X|..X.X'..X.XoXXXE.K z v $XsXpXiX",
"pXpXpXpXpXpX1X,.f s f s s s h S M./.). X].W.^./.~._..XXX|..XXXXXXX|.oXXX].Y.K c z.-XyXuX",
"pXpXpXpXpX>X4.o.Z s 1 , s Z #.A.H.I./.). X XW.W._.]..X.X|..X.X.X X X.X.X'.'.T.Y.I ,.2.&X",
"pXpXpXpX>X] h $.#.h 3 3 g D F.F.S.F.L.). X.X.X'..X.X|..X.X]..X].'..X.X.X|..X.XW.K y : v ",
"pXpXpXiX<.3 h *.Z.S c F J N.B.I.F.S.L.^..X|.|..X.X.X]..X.X.X.X|..X X.X.X|.XXXX}.m.C u s ",
"pXpXpXtX] , l $.S.N.Y.Y.T.).).U.H.S.L.). X.X.X.X.X]..X.X.X|..X].|..X.X.X.X|..X].Q.D $.A ",
"pXpXpXeXn , k #.J./._..X|..X]./.J.J.B.)..X.X.X.X.X.X]..X.X]..X|.]..X]..X].|..X].~.J.D.D.",
"pXpXpXwXb , f *.I.(.}.oXoX|.].).!.C.~._..X.X.X]..X.X.X|.]..X.X]..X.X.X.X.X|.|.].(.U.F.G.",
"pXpXpXqXb , f $.I./.].|.|.|..XW._.)._.].'..X.X.X]..X.X].|..X.X.X]..X.X.X.X|.|.W.^.I.F.G.",
"pXpXpX1Xb , f $.K.U._.].|..X.X.X'. X X.X.X X.X.X.X.X X.X.X X.X.X.X.X.X'..X.X].W.!.H.Z.$.",
"pXpXpXqXb < k #.H.U./.)._.]..X|.|.XX|.|..X|..X.X.X.X|.|..X.X X.XXX|..XXX X}.).V.M.S Z l ",
"pXpXpX9Xb < k #.F.K.J.L.^._.|.|.|.|.|.|.|..X.X.X|..X.X.XXX.X X.XXX|.XXXX X^.U.J.A u u , ",
"pXpXpX9Xb < h $.A.F.S.J.C.).]. X].].].].].].]. X X].W.].'.'.'.].E.E.'.E.W./.U.=.m i O   ",
"pXpXpX9Xb , g $.A.G.A.F.L./.~.^.^.^.^.^.^.^.^.^.~.Q.Q.T.{.`.`.y.y.K K K L L y.<.v > .   ",
"pXpXpXqXb , g $.A.G.A.A.H.J.L.L.B.L.L.L.L.L.L.J.M.=.=.<.u.a.i.q.x $ $ y c V q.q.V # .   ",
"pXpXpXqXb , g $.D.F.D.S.S.S.S.S.S.S.S.S.F.F.A.A.A.( ~ [ k.r.e.t w = % & # t 9.r.7.0 X . ",
"pXpXpXwXb , g $.G.F.A.A.A.A.A.A.A.A.A.A.A.A.A.A.>./ Q [ q.s.s.k.X.{ 4 % o 9 8.s.e.r z y ",
"pXpXpXeX_ , l $.F.G.A.A.A.A.A.A.A.A.A.A.A.A.A.A.%.^ Q [ j.s.n.n.4X3X5.4 o 9 8.d.w.y.H H ",
"pXpXpXrX ., g $.F.F.A.A.A.A.A.A.A.A.A.A.A.A.A.A.&.;.! [ q.r.n.8XfX7X3XT # 9 8.d.h.`.E.E.",
"pXpXpXpXz., g $.F.G.A.A.A.A.A.A.A.A.A.A.A.A.A.A.&.( ;.@.j.a.c.wXfXfX%XN 0 B w.h.g.[.'.oX",
"pXpXpXpX:XN l *.G.F.A.A.A.A.A.A.A.A.A.A.A.A.A.A.A.&.%.*.,.l.l.;X2X2X@XL y.y.i.i.[.oXoXoX",
"pXpXpXpXiXl.g $.A.D.A.A.A.A.A.A.A.A.A.A.A.A.A.A.A.A.-.A.A.=.P.+XOXOX}.W.R.R.].'.'.'.|..X",
"pXpXpXpXpXeX:.A #.&.A.D.D.A.A.F.A.A.D.A.A.D.A.A.A.F.A.A.D.D.K.B.~.)._.}.}.).}.).R.T.Y.y.",
"pXpXpXpXpXpX:Xm g Z A.D.F.D.D.D.A.F.D.G.F.D.D.F.A.F.A.F.D.D.F.M.N.C.V.V./.+XV.C.M.F c c ",
"pXpXpXpXpXpXpX .2 l $.A.D.F.A.A.A.S.A.A.A.A.A.A.A.A.A.A.D.D.F.F.F.H.H.H.H.K.K.Z.A D <.l.",
"pXpXpXpXpXpXpX2X] ' o.#.&.*.-.-.A.-.-.-.A.&.&.&.&.A.-.-.-.-.-.-.A.&.A.&.&.&.%.o.1.;XrXiX",
"pXpXpXpXpXpXpXpX-X6.@.k l +.>.>.>.>.>.;./ ( ( ( >.;.>.;.>.;.+.>.+.( >.>.( ~ j f >XpXpXpX",
"pXpXpXpXpXpXpXpXdX-X] 1 i W ^ ^ / ! ^ ^ ^ ^ ^ ^ ^ ^ ^ ^ ^ ^ ^ ^ ^ ^ ^ ^ E U 1 ,.rXpXpXpX",
"pXpXpXpXpXpXpXpXpX6X[ & 5 E ! Q E E E ' ' ' { { ' E E E ! ! ! ! Q Q R R R d ) ;XpXpXpXpX",
"pXpXpXpXpXpXpXpXpX6X[ & i W ~ W U i b } | ..| | } d 7 i W O.;.^ Q E Y p T 2.1XpXpXpXpXpX",
"pXpXpXpXpXpXpXpXpX6X[ * s Z %.k 5 : e 0.e.r.r.e.0.e : i k >.&.;.Q R 6 - ) *XpXpXpXpXpXpX",
"pXpXpXpXpXpXpXpXpX6X[ , f A #.j - @ q 9.d.d.f.r.9.q @ - j #.&.>.^ R 6 = _ rXpXpXpXpXpXpX",
"pXpXpXpXpXpXpXpXpXwX' * s ~ ~ a * @ r t.b.b.b.b.e.r + * a ~ >.;.Q R 4 %  .iXpXpXpXpXpXpX",
"pXpXpXpXpXpXpXpXpXtX` & p W W i = : r a.<X<X<Xv.a.B : % p ! ^ / Q R 7 % 4.pXpXpXpXpXpXpX",
"pXpXpXpXpXpXpXpXpXpXx.d p U Y 6 = : B u.v.,X<Xv.u.r : % 6 R Q Q Q R 7  .1XpXpXpXpXpXpXpX",
"pXpXpXpXpXpXpXpXpXpXiX-X2.W p 6 4 2 v V u.u.p.u.V w + % 6 R E R U T 3.qXpXpXpXpXpXpXpXpX",
"pXpXpXpXpXpXpXpXpXpXpXsX6X[ ; ; p U d b x e e w w : X = 7 R E p 4 ' 0XpXpXpXpXpXpXpXpXpX",
"pXpXpXpXpXpXpXpXpXpXpXpXtX2.& 4 U R p < & X X + X X X = p E R 6 & 3.tXpXpXpXpXpXpXpXpXpX",
"pXpXpXpXpXpXpXpXpXpXpXpXuX3.& 4 R R U =             . & p R Y 4 > z.uXpXpXpXpXpXpXpXpXpX"
};
