/* XPM */
static char *fa32558a784e4e43e66b26f14b57f010JZZvP9tH6ylSAakU[] = {
/* columns rows colors chars-per-pixel */
"50 50 201 2 ",
"   c None",
".  c #141D1B",
"X  c #19221E",
"o  c #1B261D",
"O  c #26351E",
"+  c #1E2D25",
"@  c #1C2421",
"#  c #262A27",
"$  c #293A20",
"%  c #283F2B",
"&  c #233829",
"*  c #2E3633",
"=  c #353C3A",
"-  c #373635",
";  c #31372B",
":  c #48332E",
">  c #623B28",
",  c #2A412E",
"<  c #3A4224",
"1  c #3A5225",
"2  c #3F5A26",
"3  c #2F4E33",
"4  c #2F4733",
"5  c #3A4638",
"6  c #355439",
"7  c #2E5034",
"8  c #39643D",
"9  c #425D26",
"0  c #425D29",
"q  c #44533C",
"w  c #49593A",
"e  c #5A5030",
"r  c #674538",
"t  c #7A4B35",
"y  c #4F6A29",
"u  c #59632C",
"i  c #53732A",
"p  c #5A7D2C",
"a  c #4D623B",
"s  c #52653C",
"d  c #596A39",
"f  c #4C783B",
"g  c #5D7837",
"h  c #66722C",
"j  c #68782C",
"k  c #626D3C",
"l  c #667A39",
"z  c #717D2F",
"x  c #3D4442",
"c  c #3E5743",
"v  c #3F6842",
"b  c #4D4749",
"n  c #464D4C",
"m  c #4B4B4A",
"M  c #534949",
"N  c #5B4A48",
"B  c #554847",
"V  c #4E5544",
"C  c #4B5D4A",
"Z  c #475647",
"A  c #525943",
"S  c #5A5C4A",
"D  c #555748",
"F  c #575C5C",
"G  c #654C47",
"H  c #6C4E47",
"J  c #654C48",
"K  c #714F48",
"L  c #6B5646",
"P  c #765047",
"I  c #7C5245",
"U  c #765A47",
"Y  c #426D44",
"T  c #4B6049",
"R  c #4A6A4A",
"E  c #486445",
"W  c #5A6846",
"Q  c #447445",
"!  c #4F7D47",
"~  c #4A764A",
"^  c #477D4B",
"/  c #497D4A",
"(  c #467549",
")  c #597549",
"_  c #537849",
"`  c #5F7055",
"'  c #6D6A48",
"]  c #687455",
"[  c #5F6D63",
"{  c #666C6A",
"}  c #6B6E6C",
"|  c #616E66",
" . c #6B7665",
".. c #7B7F7D",
"X. c #737778",
"o. c #767C68",
"O. c #95523A",
"+. c #AA5B3C",
"@. c #B85E3B",
"#. c #BD613F",
"$. c #B6603F",
"%. c #C2633E",
"&. c #CB653D",
"*. c #D3673A",
"=. c #D5683B",
"-. c #DA693B",
";. c #D66737",
":. c #E46D39",
">. c #EA6E39",
",. c #E3703E",
"<. c #845346",
"1. c #8C5445",
"2. c #865C46",
"3. c #8C5C46",
"4. c #955645",
"5. c #9C5943",
"6. c #975846",
"7. c #A55B42",
"8. c #AA5C41",
"9. c #B15E41",
"0. c #9B6354",
"q. c #B76040",
"w. c #B86040",
"e. c #87766F",
"r. c #A77365",
"t. c #A97365",
"y. c #AA776A",
"u. c #B67762",
"i. c #E07749",
"p. c #5D8F3F",
"a. c #5E913F",
"s. c #6F872F",
"d. c #66892E",
"f. c #648833",
"g. c #7A8735",
"h. c #679230",
"j. c #6C9230",
"k. c #6D9D36",
"l. c #62943C",
"z. c #699A39",
"x. c #67983A",
"c. c #739A32",
"v. c #7B9932",
"b. c #769431",
"n. c #77882F",
"m. c #73A233",
"M. c #7BA634",
"N. c #7DA834",
"B. c #77A834",
"V. c #4D8247",
"C. c #4B8149",
"Z. c #528545",
"A. c #558A44",
"S. c #5A8D41",
"D. c #7B8272",
"F. c #7C847C",
"G. c #8C9A33",
"H. c #869D32",
"J. c #84AA35",
"K. c #8CAD36",
"L. c #8DA134",
"P. c #94A234",
"I. c #91AF36",
"U. c #9DAB36",
"Y. c #95B337",
"T. c #9BB437",
"R. c #9CB638",
"E. c #9EB838",
"W. c #8FB036",
"Q. c #A2B638",
"!. c #A6B938",
"~. c #A5B838",
"^. c #ABBA39",
"/. c #ABBB39",
"(. c #A9B938",
"). c #ACBB39",
"_. c #ADBB39",
"`. c #ACBB3A",
"'. c #ADBB3A",
"]. c #ADBC39",
"[. c #ADBC3A",
"{. c #ACBC3A",
"}. c #AEBC3A",
"|. c #AFBD39",
" X c #ACBB39",
".X c #A4B337",
"XX c #B0BF3A",
"oX c #B3C23A",
"OX c #81817F",
"+X c #DA825C",
"@X c #E6855B",
"#X c #E8865B",
"$X c #E8885F",
"%X c #E98A61",
"&X c #7C8081",
"*X c #898B88",
"=X c #BE988D",
"-X c #C6A59C",
";X c #EFA98B",
":X c #F0AF93",
">X c #F0B398",
/* pixels */
"                                = . . . . . . . . . . . . . . . {                                   ",
"                               .w 1 1 1 1 1 1 1 1 1 1 1 1 1 1 1 ) *X                                ",
"                      } V A A k d.j.j.j.j.j.j.j.d.j.j.j.j.j.j.j.l A A V S                           ",
"                  ..o.l h h h v.Y.R.Y.Y.T.Y.T.Y.Y.R.Y.Y.Y.R.Y.Y.H.z h h h ] &X&X&X                  ",
"                A < u L._.(.(._././._./././._././././._././././._.(.^._..Xz 9 ; < A                 ",
"          F x ' g.G.P..X_._._.XX_._._._._._._._._./.'._./.|.|./._._._._._.P.G.G.G.G.W n F           ",
"        D.d u g.U._./._._._.{.{._.{.{.{.'.{.{.{.'.'.'.'.{.{.{.{._._.(._._._./._.~.U.g.u k D.        ",
"      D.k G.P.U./.oX{.'./._.'.{.|.'.{.{.'.{.{.{.{.{.'.XX{.{.{.{._.^._._._.XX|.|.'.`.U.P.G.k D.      ",
"    F.) s./.oXXX_./._._.{.{.XX{.XX{.'.'.{.{.'.XX{.{.{.{.{.'.'.{.'.'.'.{.XX'./._./.|.oXoX~.s.d F.    ",
"    q i J.R.~._._._.{.{.{.'.'.'.'.{.{.'.{.'.'.{.{.{.'.'.XX'.{.{.XX{.{.{.'.'.'._.~.Q.R.Q.!.K.i q     ",
"    q i N.J.R./.'.'.{.{.'.'.{.'.'.'.{.XXXX'.{.{.XX'.{.XX{.{.XX'.{.{.XX{.{.{.{._.T.J.N.W.Q.K.i q     ",
"    q j K.I.Q./.{.XX{.{.XX{.{.'.{.{.{.{.'.'.'.'.'.'.{.{.XX{.'.'.'.'.'.{.{.{.{.'.R.K.K.W.W.N.i q     ",
"  F.s n.!.!././._._.{.{.XX'.XX'.{.'.{.{.'.'.{.XXXX{.'.'.'.{.{.{.{.XX'.{.{.{.|././.~.Q.T.J.N.p w F.  ",
"&X` l L.|._.|./._._.{.'.'.'.{.{.XX'.XX{.'.XX{.{.'.{.{.'.'.'.'.XX{.{.'.'.{.{././.|._._.Q.Y.Y.v.l ` &X",
"X 0 b.R._.|./././.{.{.'.{.XX'.{.XX{.'.'.{.{.'.XX'.'.{.XX'.XX'.'.'.'.{.{.{.{._._.'./._./.(.].E.b.0 . ",
". 9 c.R._.|./.|.{.{.{.XX{.{.'.'.'.{.{.'.{.'.'.{.{.{.{.{.'.{.{.{.'.XX{.'.'.XX{.{.'._._./.].].R.v.9 . ",
". $ y v.T./._.{.'.'.{.{.XX{.'.'.'.{.{.XX{.{.XX'.{.{.{.{.XX'.{.{.{.{.XX'.{.{.'.{.'.'.'._.(.R.v.y $ . ",
". o 1 d.Y./._.{.{.'.XX{.'.{.{.'.'.{.'.'.{.'.'.'.XX{.{.'.'.'.XX{.{.'.'.'.XX{.'.'.{.{.{._.!.Y.d.1 @ . ",
". $ y v.R./._.{.{.{.'.'.'.{.{.XX'.'.'.{.'.'.{.'.'.{.{.'.XX{.'.'.'.'.{.{.'.{.{.XX{.{.{._./.R.v.y $ . ",
". 9 b.Y.Q./._.{.'.XX'.XX{.{.{.{.'.XX{.{.XX{.{.'.'.{.XX'.'.{.{.'.XX{.{.'.'.'.{.{.{.{.'.|./._.R.c.2 . ",
". 9 j.N.I.~./.'.'.'.'.{.{.{.{.'.{.{.{.XX'.'.XX'.'.'.{.{.'.{.{.XX{.{.{.'.`.'.'.'.{._._.`.'._.R.c.2 . ",
". 9 h.B.K./.'._._._.{.{.{.{.XX'.XX{.{.{.{.'.{.{.'.XX{.{.'.{.'.'.'.'.XX'.`.'.{.'.XX_./.`.{.'.R.v.2 X ",
". 2 h.N.J.R./.{./._._._.{.{._._.'.'.{.{.{.{.{.{.{.{.{.{.'.'.{.{.XX'.{.'.`././.~.(.'.'.`._.~.T.c.2 . ",
"@ y h.B.M.I.Q./.{._./._./._././.'.'.{.'.'.'.'.'.XX{.'.'.'.'.XX{.{.{.{.{.{._.~.Y.T.~._._./.T.K.z.0 @ ",
"n s f.j.m.B.R.(._./._./.~.Q././._././././.`.`._.'.'.'./.'.`.'.'.|././.{.{._.Q.K.K.T.(.(.T.J.j.p.s n ",
"  F.a p m.B.T.(._._././.Y.K.Q._._./.`.|._.`.`./.'.`././.'.`.`.`._.|.|.|.{././.Q.I.K.T.T.J.B.p a F.  ",
"  | E f z.m.K.T./.|.~.T.I.I.~._.~.R.T.~._.'.'._.~.T.R./.{.'.`./._._.].].{._.|./.Y.J.J.K.B.m.d.i  .  ",
"x c Y V.S.k.m.K.R.!.T.J.I.Q./._.~.K.I.~._./._./.Q.J.Y.(.|./._.'.(.!.!.!._.{._.~.K.m.m.M.m.m.k.d.a 5 ",
"X 7 ( C.Z.p.z.M.K.K.J.M.I./._.|.Q.J.J.~._./._./.Q.N.I.~._._./._..XI.K.Y.!.(.!.I.J.m.m.m.m.m.m.h.y @ ",
"n Z v v Y V.a.z.m.m.c.m.K.R.Q.Q.Y.J.J.R.(._._.~.Y.N.J.T./._./.~.I.M.m.M.Y..XT.J.m.m.k.k.k.a.d.f.a n ",
"  F.5 + 3 Q V.p.k.m.m.m.m.N.J.N.N.m.m.J.T./.(.Y.N.m.m.K.R.'.~.I.M.m.m.m.M.J.N.m.m.k.p.p.h.y < 5 F.  ",
"    X.= + 3 Y Z.p.k.m.m.m.m.m.m.m.m.m.c.K.I.I.J.m.m.c.M.K.Y.I.N.m.m.m.m.m.m.m.m.z.p.Z.f 2 O = X.    ",
"      F X & 8 ^ Z.l.k.m.m.m.k.m.m.m.m.m.m.B.M.c.k.m.m.m.N.m.m.m.m.m.m.m.m.k.k.k.a.Z./ 8 , o F       ",
"      { + 3 Q ^ C.Z.l.k.m.k.l.l.m.m.m.m.m.m.k.l.l.k.m.m.k.z.a.z.m.m.m.m.m.x.a.S.Z.C.^ v 7 + {       ",
"      { , Q C.^ ^ C.Z.l.k.l.Z.p.z.c.m.m.k.z.x.p.Z.k.m.m.m.l.A.S.z.m.m.m.z.S.C.^ / / C.C.Q , {       ",
"      } , Q ^ ^ ^ / C.V.Z.V./ V.A.z.m.k.a.A.Z.V.V.k.m.m.m.l.C.C.a.z.m.z.A.V./ ^ / / ^ / Q , }       ",
"        [ 6 7 8 ( C.C.C.~ R ^ C.V.S.l.p.Z./ ^ ^ V.a.a.l.a.S.C.C.Z.a.l.S.C.C.C.C.C.( 6 3 6 [         ",
"          * # 5 R ~ ( ( C Z R ( / ~ ! ! / / / ^ C.V.V.C.! ! _ ~ C.V.V.! ~ / ~ ~ ~ Y 3 + *           ",
"          * : r ' W T C V m C C C C C C C R / C.^ / / ( R W ' ) ^ ~ R T C C T C T C x # *           ",
"          - > 4.4.P J G P G B M N J N N N S W ) _ ~ _ W D J <.' ) ) S N M b m b b b M : *           ",
"          : r 4.4.1.4.9.&.+.H H I <.<.<.<.2.3.2.U A L U J H 1.3.2.2.<.P N b b b b N H > =           ",
"        e.t O.8.5.7.%.-.>.*.7.7.q.w.q.q.w.w.9.9.8.I 4.5.1.<.8.7.6.4.4.<.N N J M M K <.O.t e.        ",
"      OXr #.=.%.8.@.-.:.>.-.*.*.-.-.-.-.-.=.-.-.&.5.$.#.8.7.&.8.6.4.4.<.N H P H K <.6.7.+.r *X      ",
"      } > ;.>.-.&.;.>.:.:.:.>.>.>.:.:.:.>.>.>.:.=.8.#.&.q.q.-.9.4.4.4.I J P 1.I <.4.6.7.+.: }       ",
"      *XI =.:.:.-.:.:.:.:.:.:.:.:.:.:.:.:.>.:.:.=.7.%.&.%.w.=.9.4.4.4.<.H P 4.4.4.4.6.4.4.J         ",
"          i.:.:.:.:.:.:.:.:.:.:.:.:.:.:.:.-.:.:.=.7.w.=.-.=.-.9.4.4.4.4.1.1.4.4.6.6.6.4.0.          ",
"          >X:X:X;X$X,.:.:.:.:.:.:.:.:.:.:.:.>.:.-.w.=.-.:.=.%.7.4.4.4.4.4.4.6.6.y.=X-X              ",
"                  :X%X#X#X#X@X@X#X#X$X@X@X@X#X#X@X@X@X$X@X+Xu.t.t.r.t.t.t.t.r.y.-X                  ",
"                                                                                                    ",
"                                                                                                    "
};
