/* XPM */
static char *result[] = {
/* columns rows colors chars-per-pixel */
"50 50 216 2 ",
"   c #0B1619",
".  c #141B1B",
"X  c #1A1D1D",
"o  c #1B201D",
"O  c #27201D",
"+  c #39241F",
"@  c #231F22",
"#  c #1D2624",
"$  c #2B2125",
"%  c #2A2A28",
"&  c #392927",
"*  c #33242A",
"=  c #3B262D",
"-  c #39372D",
";  c #3C2B31",
":  c #3B3B36",
">  c #472B26",
",  c #5C2C27",
"<  c #47382A",
"1  c #503A28",
"2  c #452933",
"3  c #4B2B35",
"4  c #512C34",
"5  c #542C3B",
"6  c #592F3C",
"7  c #463836",
"8  c #573638",
"9  c #612D25",
"0  c #693528",
"q  c #78362A",
"w  c #61333D",
"e  c #6E343A",
"r  c #713336",
"t  c #7B3633",
"y  c #3B4039",
"u  c #54462F",
"i  c #41453D",
"p  c #48453A",
"a  c #554433",
"s  c #584837",
"d  c #704A39",
"f  c #675139",
"g  c #5D3140",
"h  c #643242",
"j  c #6B3445",
"k  c #643C44",
"l  c #6F3549",
"z  c #713545",
"x  c #74374A",
"c  c #79394B",
"v  c #7C394D",
"b  c #7C3750",
"n  c #484940",
"m  c #544543",
"M  c #5A5242",
"N  c #664945",
"B  c #654E4C",
"V  c #744848",
"C  c #665945",
"Z  c #7D5142",
"A  c #765448",
"S  c #6D5452",
"D  c #735353",
"F  c #6F624E",
"G  c #74644C",
"H  c #7A6549",
"J  c #6B6356",
"K  c #6C6759",
"L  c #776A58",
"P  c #776E60",
"I  c #797362",
"U  c #853B2E",
"Y  c #983C2E",
"T  c #83383F",
"R  c #983C39",
"E  c #A23E2E",
"W  c #93422E",
"Q  c #884533",
"!  c #964A31",
"~  c #8A5D3A",
"^  c #995836",
"/  c #B5422F",
"(  c #A74534",
")  c #AB4333",
"_  c #BA4737",
"`  c #BD463D",
"'  c #BA5535",
"]  c #8C673C",
"[  c #93653F",
"{  c #C34735",
"}  c #CD4A36",
"|  c #C4493B",
" . c #CA493A",
".. c #D34B33",
"X. c #D94D33",
"o. c #C95236",
"O. c #CC5239",
"+. c #D35137",
"@. c #DA5538",
"#. c #D95839",
"$. c #E15C3B",
"%. c #C3633D",
"&. c #D9653E",
"*. c #E3653E",
"=. c #813A4F",
"-. c #8A3C48",
";. c #953F4D",
":. c #9F3F4C",
">. c #853B52",
",. c #8C3D55",
"<. c #8D3E59",
"1. c #923E54",
"2. c #923F59",
"3. c #AB3F46",
"4. c #9E414E",
"5. c #855948",
"6. c #954055",
"7. c #9A4051",
"8. c #914A50",
"9. c #954159",
"0. c #9B475A",
"q. c #9C4A59",
"w. c #925456",
"e. c #A54346",
"r. c #AD4346",
"t. c #A5424B",
"y. c #AB4449",
"u. c #B54543",
"i. c #BA4641",
"p. c #B24448",
"a. c #B54C49",
"s. c #A24654",
"d. c #A75154",
"f. c #A45258",
"g. c #B35E5D",
"h. c #856A48",
"j. c #926541",
"k. c #8D714E",
"l. c #9C7548",
"z. c #83695A",
"x. c #857357",
"c. c #8B7354",
"v. c #967A58",
"b. c #AF7142",
"n. c #B66B55",
"m. c #B5625A",
"M. c #A77F58",
"N. c #897765",
"B. c #947A66",
"V. c #C44B41",
"C. c #C55446",
"Z. c #C56648",
"A. c #DA6847",
"S. c #C07844",
"D. c #D67845",
"F. c #C56D5E",
"G. c #C3715B",
"H. c #C77258",
"J. c #D27C5D",
"K. c #E97746",
"L. c #9D825C",
"P. c #A4835B",
"I. c #B38552",
"U. c #87806D",
"Y. c #99856B",
"T. c #9B8A74",
"R. c #A98664",
"E. c #B18C64",
"W. c #AD9069",
"Q. c #BA9565",
"!. c #A28872",
"~. c #A89376",
"^. c #B69A78",
"/. c #BCA27E",
"(. c #CA8B4F",
"). c #CC8C54",
"_. c #D28855",
"`. c #D8805E",
"'. c #DE8B5C",
"]. c #EA844C",
"[. c #F38C4F",
"{. c #E59156",
"}. c #ED9156",
"|. c #CA9D67",
" X c #C49A68",
".X c #C7A477",
"XX c #D5A872",
"oX c #D4A974",
"OX c #E7B376",
"+X c #F2BD7C",
"@X c #AF9D82",
"#X c #B29E81",
"$X c #B4A185",
"%X c #BBA484",
"&X c #BFA98A",
"*X c #C3AA86",
"=X c #CDAD83",
"-X c #CDB18E",
";X c #D5B285",
":X c #DBB585",
">X c #D8B68A",
",X c #DCB98C",
"<X c #D2B592",
"1X c #D9BA92",
"2X c #EABE86",
"3X c #E4BC89",
"4X c #ECC28B",
"5X c #F5C588",
"6X c #F3C68D",
"7X c #FFCC8C",
"8X c #E8C596",
"9X c #EDC899",
"0X c #F4CA95",
"qX c #F5CB95",
"wX c #FBCD92",
"eX c #F1CB9A",
/* pixels */
"7X7X7X7X7X7X7X7X7X7X7X7X7X7X7X7X7X7X7X7X7X7X7X7X7X7X7X7X7X7X7X7X7X7X7X7X7X7X7X7X7X7X7X7X7X7X7X7X7X7X",
"7X7X7X7X7X7X7X7X7X7X7X7X7X7X7X7X7X7X7X7X7X7X7X7X7X7X7X7X7X7X7X7X7X7X7X7X7X7X7X7X7X7X7X7X7X7X7X7X7X7X",
"7X7X7X7X7X7X7X7X7X7X7X7X7X7X7X7X7X7X7X7X7X7X7X7X7X7X7X7X7X7X7X7X7X7X7X7X7X7X7X7X7X7X7X7X7X7X7X7X7X7X",
"7X7X7X7X7X7X7X7X7X7X7X7X7X7X7X7X7X7X7X7X7X7X7X7X7X7X7X7X7X7X7X7X7X7X7X7X7X7X7X2X:X;X=X=X=X4X7X7X7X7X",
"7X7X7X7X7X7X7X7X7X7X7X7X7X7X7X7X7X7X7X7X7X7X7X7X7X7X7X7X7X7X7X7X7X7X7X7X7X6X^.G M M C s M N.,X7X7X7X",
"7X7X7X7X7X7X7X7X7X7X7X7X7X7X7X7X7X7X7X7X7X7X7X7X7X7X7X7X7X7XwX7X7X7X7X7X6X=Xx.8 s a u < p C /.wX7X7X",
"7X7X7X7X7X7X7X7X7X7X7X7X7X7X7X7X7X7X7X7X7X7X7X7X7X7X7X7X8X*X/.^.%X*X*X&X^.N.D V Z j.] f u s %X7X7X7X",
"7X7X7X7X7X7X7X7X7X7X7X7X7X7X7X7X7X7X7X7X7X7X7X7X7X7X7XeX%XJ y y n p n n m k V 8.n._.(.] u C %XwX7X7X",
"7X7X7X7X7X7X7X7X7X7X7X7X7X7X7X7X7X7X7X7X7X7X7X7X7X7XqX,XT.s < & & + + + > e =.s.F.'._.j.f C %X7X7X7X",
"7X7X7X7X7X7X7X7X7X7X7X7X7X7X7X7X7X7X7X7X7X7X7X7X7X0X&X~.v.] ~ ~ q q q q t T ,.0.g.F.n.5.C C /.7X7X7X",
"7X7X7X7X7X7X7X7X7X7X7X7X7X7X7X7X7X7X7X7X7X7X7X7X0X^.K C l.(.(.%._ / / / E 3.1.6.0.q.w.Z N H =X7X7X7X",
"7X7X7X7X7X7X7X7X7X7X7X7X7X7X7X7X7X7X7X7X7X7X7X7X<XN.1 d b.}.[.*.@....... .u.4.,.>.,.w.z.v.^.5X7X7X7X",
"7X7X7X7X7X7X7X7X7X7X7X7X7X7X7X7X7X7X7X7X7X7X0X-X!.5.q ! %.*.].*.@.X.X.X. .i.7.>.l h D !.;X5X7X7X7X7X",
"7X7X7X7X7X7X7X7X7X7X7X7X7X7X7X7X7X7X7X7X7X7X*XK d Q ) _ #.&.#.#.+....... .a.7.v g ; g *X7X7X7X7X7X7X",
"7X7X7X7X7X7X7X7X7X7X7X7X7X7X7X7X7X7X7X7XwX,XL * > U _ } ............}  .i.p.7.c 5 * n >X7X7X7X7X7X7X",
"7X7X7X7X7X7X7X7X7X7X7X7X7X7X7X7X7X7X7X7X1XU.i . > t r.| } ........} | i.y.t.6.c 5 * p ,X7X7X7X7X7X7X",
"7X7X7X7X7X7X7X7X7X7X7X7X7X7X7X7X7X7X0X=XK y # . & j ;.p.| } ..X... .u.t.4.6.1.v 5 $ M ,X7X7X7X7X7X7X",
"7X7X7X7X7X7X7X7X7X7X7X7X7X7X7X7X7XwX1XL + O O + 4 e 1.y.i.| } } | ` r.7.<.<.1.v 5 & C 3X7X7X7X7X7X7X",
"7X7X7X7X7X7X7X7X7X7X7X7X7X7X7X7X0X<X!.Z 9 9 9 9 t Q t.y.p.u.u.i.u.r.4.1.<.2.9.v 5 & K 5X7X7X7X7X7X7X",
"7X7X7X7X7X7X7X7X7X7X7X7X7X7X7X9X#XL A Q Y Y ) ( ) _ ` i.r.t.4.4.t.4.1.1.1.2.2.=.5 7 x.7X7X7X7X7X7X7X",
"7X7X7X7X7X7X7X7X7X7X7X7X7X7XqX*XL 3 0 ( o.+...} } ..} ` t.1.,.,.1.1.<.<.<.1.>.b k S /.7X7X7X7X7X7X7X",
"7X7X7X7X7X7X7X7X7X7X7X7X7X9X<X!.d 0 ! Z.*.*.$.X.......` y.6.<.<.<.2.2.2.>.b h N B.OX7X7X7X7X7X7X7X7X",
"7X7X7X7X7X7X7X7X7X7X7X7X8X$XN.Z Q ( %.K.[.].*.+...X.} ` e.6.<.<.1.2.2.1.=.w 2 8 ;X7X7X7X7X7X7X7X7X7X",
"7X7X7X7X7X7X7X7X7X7X7XqX&XJ ; , E O.D.[.}.[.*.+.....} | t.1.,.,.>.,.<.,.x 5 : !.7X7X7X7X7X7X7X7X7X7X",
"7X7X7X7X7X7X7X7X7XwX9X-XU.: O , R C.A.].[.K.&.......} | 3.1.>.x j h h h k D ~.7X7X7X7X7X7X7X7X7X7X7X",
"7X7X7X7X7X7X7X7XwX8X@XI i # $ 4 -.a.C.A.&.*.@.......} | y.1.b g 2 ; = = m /.7X7X7X7X7X7X7X7X7X7X7X7X",
"7X7X7X7X7X7X7XwXeX&XJ - o o $ 4 x ;.p.V.+.+...} ..} } ` t.1.l 3 $ . . % B.7X7X7X7X7X7X7X7X7X7X7X7X7X",
"7X7X7X7X7X7XwXeX<X!.f u < > , r -.:.r.u.` ` ` ` _ { ` p.y.<.l 2 o % i Y.2XwX7X7X7X7X7X7X7X7X7X7X7X7X",
"7X7X7XwX7XwX8X$XY.k.[ ^ ! Q Y E ) u.p.r.r.e.t.r.t.t.t.t.7.1.z 2 $ y ~.7X7X7X7X7X7X7X7X7X7X7X7X7X7X7X",
"7X7X7XwXwXeX$XK s ~ S.D.&.o.{ { }  .u.t.1.1.1.1.7.6.6.6.2.<.j 2 % L 7X7X7X7X7X7X7X7X7X7X7X7X7X7X7X7X",
"7X7XwXwXeX<XY.s 0 ^ D.K.*.#.......} u.4.<.<.<.<.1.<.<.>.b x k B I 3X7X7X7X7X7X7X7X7X7X7X7X7X7X7X7X7X",
"7X7XwX1X%XY.5.t W ' &.*.*.#.X.....} ` 4.<.<.2.2.2.9.<.b h 3 B ^.7X7X7X7X7X7X7X7X7X7X7X7X7X7X7X7X7X7X",
"7XwXeX%XS 8 d ) { ..+.+.+.........| u.4.1.<.<.,.1.1.,.j 3 ; P 6X7X7X7X7X7X7X7X7X7X7X7X7X7X7X7X7X7X7X",
"7X7X9X~.- & q / |  .| {  .} } }  .` r.4.<.>.b x x x z k M L >X7X7X7X7X7X7X7X7X7X7X7X7X7X7X7X7X7X7X7X",
"7X7X9XT.- & r e.p.p.3.p.` } } | p.r.s.7.,.c w 5 3 2 3 S ~.4X7X7X7X7X7X7X7X7X7X7X7X7X7X7X7X7X7X7X7X7X",
"7X7XqX%X: & 6 -.7.7.7.t.`  . .i.y.;.1.2.=.h 2 @ @ # ; B.7X7X7X7X7X7X7X7X7X7X7X7X7X7X7X7X7X7X7X7X7X7X",
"7X7XwX=Xy * 6 =.9.q.d.d.a.| ` r.;.1.2.2.>.g = X x.L J 3X7X7X7X7X7X7X7X7X7X7X7X7X7X7X7X7X7X7X7X7X7X7X",
"7X7X7X>Xm $ 5 v 0.m.n.G.m.i.r.4.;.<.2.9.>.h * X p 7X4X7X7X7X7X7X7X7X7X7X7X7X7X7X7X7X7X7X7X7X7X7X7X7X",
"7X7X7X:XF * 5 =.f.G.'.'.H.d.7.,.<.<.9.9.>.h * % I 6X7X7X7X7X7X7X7X7X7X7X7X7X7X7X7X7X7X7X7X7X7X7X7X7X",
"7X7X7X=XL 7 w 8.m.`.{.'.G.f.1.,.,.9.>.>.c g m J >X7X7X7X7X7X7X7X7X7X7X7X7X7X7X7X7X7X7X7X7X7X7X7X7X7X",
"4X,X:X^.H C d n.J.`.J.H.m.q.9.2.2.,.c h 6 D !.4X7X7X7X7X7X7X7X7X7X7X7X7X7X7X7X7X7X7X7X7X7X7X7X7X7X7X",
"Y.Y.L.x.H L.j._.'.J.m.f.q.9.2.2.6.>.h 2 7 T.6X7X7X7X7X7X7X7X7X7X7X7X7X7X7X7X7X7X7X7X7X7X7X7X7X7X7X7X",
"- - s H v.Q.I.(._.n.8.=.b >.=.>.v c g p L 6X7X7X7X7X7X7X7X7X7X7X7X7X7X7X7X7X7X7X7X7X7X7X7X7X7X7X7X7X",
"O y G P. X|.|.).M.Z w 6 5 6 6 6 V D B.oXwX7X7X7X7X7X7X7X7X7X7X7X7X7X7X7X7X7X7X7X7X7X7X7X7X7X7X7X7X7X",
". p k. XOXOX|.P.v.v.R.P.M.R.R.R.Q.oX5X7X7X7X7X7X7X7X7X7X7X7X7X7X7X7X7X7X7X7X7X7X7X7X7X7X7X7X7X7X7X7X",
"  - k.XX+XOX Xk.c.R..XoX:X5X7X7X5X7X7X7X7X7X7X7X7X7X7X7X7X7X7X7X7X7X7X7X7X7X7X7X7X7X7X7X7X7X7X7X7X7X",
"  . H Q.XXXXE.h.W.2X7X7X7X7X7X7X7X7X7X7X7X7X7X7X7X7X7X7X7X7X7X7X7X7X7X7X7X7X7X7X7X7X7X7X7X7X7X7X7X7X",
"  . p ] L.L.v.L.2X7X7X7X7X7X7X7X7X7X7X7X7X7X7X7X7X7X7X7X7X7X7X7X7X7X7X7X7X7X7X7X7X7X7X7X7X7X7X7X7X7X",
". . . p u f H /.7X7X7X7X7X7X7X7X7X7X7X7X7X7X7X7X7X7X7X7X7X7X7X7X7X7X7X7X7X7X7X7X7X7X7X7X7X7X7X7X7X7X",
". . . o O p c.XX7X7X7X7X7X7X7X7X7X7X7X7X7X7X7X7X7X7X7X7X7X7X7X7X7X7X7X7X7X7X7X7X7X7X7X7X7X7X7X7X7X7X"
};
